<svg width="1280" height="433" version="1.1" xmlns="http://www.w3.org/2000/svg" desc="Created with imagetracer.js version 1.2.6" ><path fill="rgb(52,167,82)" stroke="rgb(52,167,82)" stroke-width="1" opacity="0.8549019607843137" d="M 1014 14 L 1058.5 14 L 1059 14.5 L 1059 319.5 L 1058 319.5 L 1058 15.5 L 1057.5 15 L 1015 15 L 1014.5 320 L 1014 14 Z " /><path fill="rgb(0,0,0)" stroke="rgb(0,0,0)" stroke-width="1" opacity="0" d="M 0 0 L 1280 0 L 1280 433 L 0 433 L 0 0 Z M 151 2 L 128 6 L 103 14 Q 77 25 58 42 Q 31 65 15 99 L 5 128 L 2 145 L 2 155 L 1 156 L 1 174 L 2 175 L 3 191 L 11 221 Q 23 251 43 273 Q 64 296 95 311 L 125 322 L 146 326 L 156 326 L 157 327 L 189 326 L 222 319 Q 248 310 267 294 Q 291 275 305 245 L 314 218 L 317 201 L 317 192 L 318 191 L 318 165 L 316 155 Q 316 150 316 150 L 166 150 L 166 195 L 271 195 Q 268 226 252 245 Q 237 263 214 273 L 195 279 L 184 280 L 183 281 L 171 281 L 170 282 L 145 280 L 127 275 Q 104 267 89 252 Q 71 237 61 215 L 52 187 L 51 171 L 50 170 L 51 149 L 57 124 Q 65 103 78 88 Q 91 72 109 62 L 135 51 L 156 47 L 177 47 L 199 51 Q 223 58 240 73 L 246 79 L 278 47 Q 256 25 226 12 L 211 7 L 191 3 Q 184 5 183 2 L 151 2 Z M 1014 14 L 1014 320 L 1015 320 L 1059 320 L 1059 15 L 1059 14 L 1014 14 Z M 432 117 L 410 121 L 396 126 Q 381 132 371 142 Q 356 155 346 173 L 338 194 L 335 210 L 335 235 L 338 251 Q 345 273 358 290 Q 370 304 388 314 L 410 323 L 432 327 L 449 327 L 471 323 Q 493 316 509 303 Q 522 292 531 277 Q 538 265 542 251 L 545 235 L 545 210 L 541 191 Q 535 169 522 155 Q 507 136 485 126 L 463 119 L 450 118 L 449 117 L 432 117 Z M 658 117 L 657 118 L 649 118 L 639 120 L 627 124 Q 611 130 599 140 Q 583 152 573 171 L 565 190 L 561 209 L 561 236 L 565 255 Q 572 275 584 290 Q 596 304 614 314 L 639 324 L 649 326 L 657 326 L 658 327 L 675 327 L 697 323 Q 720 316 736 302 Q 748 291 757 277 L 767 254 L 771 234 L 771 211 L 767 191 Q 760 170 748 155 Q 733 136 711 126 L 689 119 L 675 118 L 674 117 L 658 117 Z M 880 117 L 863 120 L 849 125 L 825 140 Q 805 156 794 182 L 788 202 L 787 221 L 786 222 L 788 243 L 793 261 Q 799 277 810 290 Q 823 305 841 315 L 863 324 L 880 327 L 894 327 L 895 326 L 907 325 Q 922 321 934 312 L 943 304 L 943 327 L 942 328 L 941 339 Q 938 350 932 359 Q 921 374 899 378 L 880 378 L 875 377 Q 862 373 854 366 Q 841 356 836 341 L 795 359 Q 801 374 811 386 Q 823 400 840 409 L 860 417 L 875 420 L 903 420 L 923 416 Q 944 410 958 396 Q 973 381 981 359 L 986 338 L 987 315 L 988 314 L 988 125 L 988 124 L 943 124 L 943 141 L 941 139 Q 930 127 914 121 L 894 117 L 880 117 Z M 1169 117 L 1168 118 L 1161 118 L 1151 120 L 1137 125 Q 1122 132 1111 142 Q 1096 155 1087 175 L 1081 192 L 1078 208 L 1078 236 L 1081 252 Q 1088 276 1103 293 Q 1116 308 1136 317 L 1155 324 L 1165 326 L 1173 326 L 1174 327 L 1199 326 L 1216 322 L 1234 314 L 1252 301 Q 1263 292 1269 279 L 1233 256 L 1228 263 L 1212 277 L 1198 283 L 1187 285 Q 1161 286 1148 274 Q 1138 266 1132 255 L 1225 215 L 1271 197 Q 1263 166 1243 146 Q 1229 130 1208 122 L 1193 118 L 1169 117 Z " /><path fill="rgb(0,0,0)" stroke="rgb(0,0,0)" stroke-width="1" opacity="0" d="M 1177.5 158 L 1187.5 159 L 1197.5 162 L 1211 171.5 L 1216 179.5 L 1124.5 218 L 1124 209.5 L 1126 199.5 L 1132 185.5 L 1142.5 173 Q 1149.5 166 1159.5 162 L 1177.5 158 Z " /><path fill="rgb(0,0,0)" stroke="rgb(0,0,0)" stroke-width="1" opacity="0" d="M 435.5 159 L 444.5 159 L 458.5 162 Q 472.9 167.1 482 177.5 Q 491.4 187.6 496 202.5 L 498 211.5 L 498 232.5 L 493 249.5 L 480 269 L 470.5 276 L 460.5 281 L 451.5 284 L 435.5 285 L 419.5 281 L 409.5 276 L 394 261.5 Q 386.2 251.8 383 237.5 L 382 232.5 L 382 211.5 L 386 196.5 L 397 178 Q 399.7 179.1 399 176.5 L 414.5 165 L 421.5 162 L 435.5 159 Z " /><path fill="rgb(0,0,0)" stroke="rgb(0,0,0)" stroke-width="1" opacity="0" d="M 661.5 159 L 670.5 159 L 686.5 163 Q 702.3 169.7 712 182.5 Q 719.6 192.4 723 206.5 Q 721.7 211.3 724 212.5 L 724 231.5 Q 719.3 259.3 700.5 273 Q 690.9 280.4 677.5 284 L 661.5 285 Q 660 282.5 654.5 284 L 640.5 279 L 625 268 L 616 255.5 L 609 238.5 L 608 233.5 L 608 210.5 Q 612.6 187.1 627.5 174 L 642.5 164 L 661.5 159 Z " /><path fill="rgb(0,0,0)" stroke="rgb(0,0,0)" stroke-width="1" opacity="0" d="M 886.5 159 L 895.5 159 L 908.5 162 Q 924.6 168.4 934 181.5 Q 941.6 191.9 945 206.5 Q 943.7 211.3 946 212.5 L 946 232.5 Q 941.6 258.1 925.5 272 Q 912.5 285 886.5 285 L 876.5 283 L 862.5 277 L 848 264.5 L 840 252.5 L 836 242.5 L 833 220.5 L 834 219.5 L 834 210.5 L 838 196.5 Q 844.1 182.6 854.5 173 L 870.5 163 L 886.5 159 Z " /><path fill="rgb(251,187,4)" stroke="rgb(251,187,4)" stroke-width="1" opacity="0.9686274509803922" d="M 657.5 117 L 673.5 117 L 674.5 118 L 688.5 119 L 710.5 126 Q 733.2 136.3 748 154.5 Q 760.4 169.6 767 190.5 L 771 210.5 L 771 233.5 L 767 253.5 L 757 276.5 Q 748.2 291.2 735.5 302 Q 719.6 316.1 696.5 323 L 674.5 327 L 657.5 327 L 656.5 326 L 648.5 326 L 638.5 324 L 613.5 314 Q 596.1 304.5 584 289.5 Q 571.5 275 565 254.5 L 561 235.5 L 561 208.5 L 565 189.5 L 573 170.5 Q 582.9 152.4 598.5 140 Q 610.5 130 626.5 124 L 638.5 120 L 648.5 118 L 656.5 118 L 657.5 117 Z M 662 159 L 643 164 L 628 174 Q 613 187 608 211 L 608 234 L 609 239 L 616 256 L 625 268 L 641 279 L 655 284 Q 660 283 662 285 L 678 284 Q 691 280 701 273 Q 719 259 724 232 L 724 213 Q 722 211 723 207 Q 720 192 712 183 Q 702 170 687 163 L 671 159 L 662 159 Z " /><path fill="rgb(251,187,4)" stroke="rgb(251,187,4)" stroke-width="1" opacity="0.9686274509803922" d="M 1241.5 144 L 1242.5 146 L 1241.5 144 Z " /><path fill="rgb(52,168,83)" stroke="rgb(52,168,83)" stroke-width="1" opacity="1" d="M 1015 15 L 1057.5 15 L 1058 15.5 L 1058 320 L 1015.5 320 L 1015 319.5 L 1015 15 Z " /><path fill="rgb(65,133,243)" stroke="rgb(65,133,243)" stroke-width="1" opacity="0.9725490196078431" d="M 150.5 2 L 182.5 2 Q 184.3 4.8 190.5 3 L 210.5 7 L 225.5 12 Q 256.4 24.6 278 46.5 L 245.5 79 L 239.5 73 Q 222.7 58.3 198.5 51 L 176.5 47 L 155.5 47 L 134.5 51 L 108.5 62 Q 90.8 72.3 78 87.5 Q 64.9 102.9 57 123.5 L 51 148.5 L 50 169.5 L 51 170.5 L 52 186.5 L 61 214.5 Q 71.3 236.7 88.5 252 Q 104.4 266.6 126.5 275 L 144.5 280 L 169.5 282 L 170.5 281 L 182.5 281 L 183.5 280 L 194.5 279 L 213.5 273 Q 236.7 262.7 252 244.5 Q 268.1 225.8 271 195 L 166 195 L 166 150 L 315.5 150 Q 316.5 150 316 154.5 L 318 164.5 L 318 190.5 L 317 191.5 L 317 200.5 L 314 217.5 L 305 244.5 Q 291.1 274.6 266.5 294 Q 247.6 310.1 221.5 319 L 188.5 326 L 156.5 327 L 155.5 326 L 145.5 326 L 124.5 322 L 94.5 311 Q 64.5 296 43 272.5 Q 22.7 250.8 11 220.5 L 3 190.5 L 2 174.5 L 1 173.5 L 1 155.5 L 2 154.5 L 2 144.5 L 5 127.5 L 15 98.5 Q 30.7 64.7 57.5 42 Q 76.8 24.8 102.5 14 L 127.5 6 L 150.5 2 Z " /><path fill="rgb(65,133,243)" stroke="rgb(65,133,243)" stroke-width="1" opacity="0.9725490196078431" d="M 879.5 117 L 893.5 117 L 913.5 121 Q 930.1 126.9 941 138.5 L 942.5 141 L 943 124 L 987.5 124 L 988 124.5 L 988 313.5 L 987 314.5 L 986 337.5 L 981 358.5 Q 973.1 381.1 957.5 396 Q 943.5 409.5 922.5 416 L 902.5 420 L 874.5 420 L 859.5 417 L 839.5 409 Q 822.8 399.7 811 385.5 Q 800.8 374.2 795 358.5 L 836 341 Q 841.2 356.4 853.5 366 Q 862.1 373.4 874.5 377 L 879.5 378 L 898.5 378 Q 921.1 374.1 932 358.5 Q 938 350 941 338.5 L 942 327.5 L 943 326.5 L 943 303.5 L 933.5 312 Q 922.5 321 906.5 325 L 894.5 326 L 893.5 327 L 879.5 327 L 862.5 324 L 840.5 315 Q 822.7 304.8 810 289.5 Q 799.5 277 793 260.5 L 788 242.5 L 786 221.5 L 787 220.5 L 788 201.5 L 794 181.5 Q 804.8 156.3 824.5 140 L 848.5 125 L 862.5 120 L 879.5 117 Z M 887 159 L 871 163 L 855 173 Q 844 183 838 197 L 834 211 L 834 220 L 833 221 L 836 243 L 840 253 L 848 265 L 863 277 L 877 283 L 887 285 Q 913 285 926 272 Q 942 258 946 233 L 946 213 Q 944 211 945 207 Q 942 192 934 182 Q 925 168 909 162 L 896 159 L 887 159 Z " /><path fill="rgb(233,66,52)" stroke="rgb(233,66,52)" stroke-width="1" opacity="0.9725490196078431" d="M 432.5 117 L 447.5 117 L 448.5 118 L 462.5 119 L 484.5 126 Q 507.2 136.3 522 154.5 Q 534.4 169.6 541 190.5 L 545 209.5 L 545 233.5 L 542 250.5 Q 538 265 531 276.5 Q 522.2 291.2 509.5 302 Q 493.7 316.2 470.5 323 L 448.5 327 L 431.5 327 L 409.5 323 L 389.5 315 Q 371.7 305.3 359 290.5 Q 344.9 274.1 338 250.5 L 335 234.5 L 335 209.5 L 338 193.5 L 345 174.5 Q 354.9 155.4 370.5 142 Q 381.4 132.4 395.5 126 L 417.5 119 L 431.5 118 L 432.5 117 Z M 436 159 L 422 162 L 415 165 L 401 175 Q 386 188 382 212 L 382 233 L 383 238 Q 386 252 394 262 Q 402 272 415 279 L 429 284 Q 434 283 436 285 L 445 285 L 459 282 L 471 276 L 480 269 L 490 256 L 494 248 L 498 233 L 498 212 L 496 203 Q 491 188 482 178 Q 473 167 459 162 L 445 159 L 436 159 Z " /><path fill="rgb(233,66,52)" stroke="rgb(233,66,52)" stroke-width="1" opacity="0.9725490196078431" d="M 1168.5 117 L 1192.5 118 L 1207.5 122 Q 1227.6 129.4 1241 143.5 Q 1262.2 164.5 1271 197 L 1224.5 215 L 1132 254.5 Q 1137.8 266.2 1147.5 274 Q 1160.8 285.7 1186.5 285 L 1197.5 283 L 1211.5 277 L 1228 262.5 L 1232.5 256 L 1269 279 L 1265 286.5 L 1252.5 300 Q 1239 312.5 1220.5 320 L 1198.5 326 L 1173.5 327 L 1172.5 326 L 1164.5 326 L 1154.5 324 L 1135.5 317 Q 1116.3 307.7 1103 292.5 Q 1088 276 1081 251.5 L 1078 235.5 L 1078 207.5 L 1081 191.5 L 1087 174.5 Q 1095.7 155.2 1110.5 142 Q 1121.7 131.7 1136.5 125 L 1150.5 120 L 1160.5 118 L 1167.5 118 L 1168.5 117 Z M 1178 158 L 1160 162 L 1144 172 Q 1128 185 1124 209 L 1125 218 L 1216 180 L 1212 173 L 1198 162 L 1188 159 L 1178 158 Z " /></svg>