<svg width="300" height="150" version="1.1" xmlns="http://www.w3.org/2000/svg" desc="Created with imagetracer.js version 1.2.6" ><path fill="rgb(251,253,254)" stroke="rgb(251,253,254)" stroke-width="1" opacity="1" d="M 12.5 32 L 14 32.5 L 11.5 34 L 12.5 32 Z " /><path fill="rgb(251,253,254)" stroke="rgb(251,253,254)" stroke-width="1" opacity="1" d="M 13.5 34 Q 17.3 32.8 16 36.5 L 13.5 34 Z " /><path fill="rgb(251,253,254)" stroke="rgb(251,253,254)" stroke-width="1" opacity="1" d="M 0 36 L 2 36.5 L 0.5 39 L 0 36 Z " /><path fill="rgb(251,253,254)" stroke="rgb(251,253,254)" stroke-width="1" opacity="1" d="M 4.5 37 L 6 41.5 L 5 41.5 L 4.5 40 L 3 51.5 Q 5.3 52.8 4 57.5 L 3 57.5 L 2.5 56 L 1.5 64 L 1 52.5 L 3 46.5 L 2 44.5 L 3 42.5 L 2 40 Q 5.1 41.1 4.5 37 Z " /><path fill="rgb(251,253,254)" stroke="rgb(251,253,254)" stroke-width="1" opacity="1" d="M 10.5 37 L 15 38.5 L 11.5 39 L 10.5 37 Z " /><path fill="rgb(251,253,254)" stroke="rgb(251,253,254)" stroke-width="1" opacity="1" d="M 18.5 40 L 20 40.5 L 18 41.5 L 18.5 43 Q 16.3 43.8 17 41.5 L 18.5 40 Z " /><path fill="rgb(251,253,254)" stroke="rgb(251,253,254)" stroke-width="1" opacity="1" d="M 19.5 45 Q 21.8 44.3 21 46.5 L 19.5 45 Z " /><path fill="rgb(251,253,254)" stroke="rgb(251,253,254)" stroke-width="1" opacity="1" d="M 6.5 46 L 7 55.5 L 5.5 58 L 5 56.5 L 6 54.5 Q 3.7 53.3 5 48.5 L 6.5 46 Z " /><path fill="rgb(251,253,254)" stroke="rgb(251,253,254)" stroke-width="1" opacity="1" d="M 21.5 48 L 23 53.5 L 22 53.5 L 21.5 48 Z " /><path fill="rgb(251,253,254)" stroke="rgb(251,253,254)" stroke-width="1" opacity="1" d="M 139.5 48 Q 145.3 46.3 144 50 Q 139.3 51 139.5 48 Z " /><path fill="rgb(251,253,254)" stroke="rgb(251,253,254)" stroke-width="1" opacity="1" d="M 146.5 48 L 151.5 49 L 153 48.5 Q 151.5 51.5 145.5 50 L 146.5 48 Z " /><path fill="rgb(251,253,254)" stroke="rgb(251,253,254)" stroke-width="1" opacity="1" d="M 168.5 48 L 176 48.5 L 168.5 49 L 168.5 48 Z " /><path fill="rgb(251,253,254)" stroke="rgb(251,253,254)" stroke-width="1" opacity="1" d="M 182.5 48 L 187 48.5 L 182.5 49 L 182.5 48 Z " /><path fill="rgb(251,253,254)" stroke="rgb(251,253,254)" stroke-width="1" opacity="1" d="M 196.5 48 L 201 48.5 L 196.5 49 L 196.5 48 Z " /><path fill="rgb(251,253,254)" stroke="rgb(251,253,254)" stroke-width="1" opacity="1" d="M 210.5 48 Q 213.8 46.9 213 49.5 L 211.5 49 L 210.5 48 Z " /><path fill="rgb(251,253,254)" stroke="rgb(251,253,254)" stroke-width="1" opacity="1" d="M 216.5 48 L 228 48.5 L 216.5 49 L 216.5 48 Z " /><path fill="rgb(251,253,254)" stroke="rgb(251,253,254)" stroke-width="1" opacity="1" d="M 232.5 48 L 234 48.5 L 232 49 Q 233.1 51.7 230.5 51 L 232.5 48 Z " /><path fill="rgb(251,253,254)" stroke="rgb(251,253,254)" stroke-width="1" opacity="1" d="M 237.5 48 L 240 48.5 L 237.5 49 L 237.5 48 Z " /><path fill="rgb(251,253,254)" stroke="rgb(251,253,254)" stroke-width="1" opacity="1" d="M 250.5 48 L 253 48.5 L 250.5 49 L 250.5 48 Z " /><path fill="rgb(251,253,254)" stroke="rgb(251,253,254)" stroke-width="1" opacity="1" d="M 257.5 48 L 263.5 49 L 265 48.5 L 262.5 52 L 262 50 L 257.5 49 L 257.5 48 Z " /><path fill="rgb(251,253,254)" stroke="rgb(251,253,254)" stroke-width="1" opacity="1" d="M 266.5 48 L 270 49.5 L 269 52 L 266 51.5 L 267.5 49 L 266.5 48 Z " /><path fill="rgb(251,253,254)" stroke="rgb(251,253,254)" stroke-width="1" opacity="1" d="M 284.5 48 L 288 48.5 L 284.5 49 L 284.5 48 Z " /><path fill="rgb(251,253,254)" stroke="rgb(251,253,254)" stroke-width="1" opacity="1" d="M 97.5 49 L 101.5 50 L 102.5 49 L 111.5 49 L 111.5 50 L 99.5 51 L 97.5 49 Z " /><path fill="rgb(251,253,254)" stroke="rgb(251,253,254)" stroke-width="1" opacity="1" d="M 120.5 49 L 128 49.5 L 120.5 50 L 120.5 49 Z " /><path fill="rgb(251,253,254)" stroke="rgb(251,253,254)" stroke-width="1" opacity="1" d="M 134.5 49 L 135 50.5 L 132.5 54 L 130 53.5 L 133 53 Q 134.3 49.7 129.5 51 L 129.5 50 L 134.5 49 Z " /><path fill="rgb(251,253,254)" stroke="rgb(251,253,254)" stroke-width="1" opacity="1" d="M 157.5 49 L 159.5 50 L 162.5 49 Q 164.8 52.7 171.5 52 L 177.5 50 Q 178.3 52.8 182.5 52 L 184.5 52 L 192 51 L 192.5 49 L 193 50.5 L 186.5 54 L 183.5 53 L 181.5 53 L 175.5 52 L 166.5 54 L 166 52 L 161.5 51 L 157.5 52 L 157.5 49 Z " /><path fill="rgb(251,253,254)" stroke="rgb(251,253,254)" stroke-width="1" opacity="1" d="M 77.5 50 Q 81.3 49 80 52 L 77.5 50 Z " /><path fill="rgb(251,253,254)" stroke="rgb(251,253,254)" stroke-width="1" opacity="1" d="M 114.5 50 Q 118.3 49.3 119 51.5 L 113.5 52 L 114.5 50 Z " /><path fill="rgb(251,253,254)" stroke="rgb(251,253,254)" stroke-width="1" opacity="1" d="M 207.5 50 L 212 52 Q 211 55 214 54 L 214 57 Q 210.7 58.1 212 54 L 207 54 L 207.5 50 Z " /><path fill="rgb(251,253,254)" stroke="rgb(251,253,254)" stroke-width="1" opacity="1" d="M 214 50 L 217 51.5 L 214 52 L 214 50 Z " /><path fill="rgb(251,253,254)" stroke="rgb(251,253,254)" stroke-width="1" opacity="1" d="M 220.5 50 L 228 52 Q 229.3 55 225.5 54 L 223.5 54 L 222 53.5 L 224 52.5 Q 219.8 51.9 220.5 50 Z " /><path fill="rgb(251,253,254)" stroke="rgb(251,253,254)" stroke-width="1" opacity="1" d="M 233 50 L 238 50.5 Q 236.8 53 233 52 L 233 50 Z " /><path fill="rgb(251,253,254)" stroke="rgb(251,253,254)" stroke-width="1" opacity="1" d="M 136.5 51 L 138 58.5 L 134.5 61 L 134 58.5 L 135 55.5 L 134.5 54 L 136 54.5 L 136.5 51 Z M 136 56 L 135 59 L 136 59 L 136 56 Z " /><path fill="rgb(251,253,254)" stroke="rgb(251,253,254)" stroke-width="1" opacity="1" d="M 151.5 51 L 154 51.5 Q 155.1 54.8 152.5 54 L 150 52.5 L 151.5 51 Z " /><path fill="rgb(251,253,254)" stroke="rgb(251,253,254)" stroke-width="1" opacity="1" d="M 280 51 L 283 51.5 L 279.5 54 L 280 52.5 L 280 51 Z " /><path fill="rgb(251,253,254)" stroke="rgb(251,253,254)" stroke-width="1" opacity="1" d="M 120.5 52 L 128 52.5 L 120.5 53 L 120.5 52 Z " /><path fill="rgb(251,253,254)" stroke="rgb(251,253,254)" stroke-width="1" opacity="1" d="M 196 52 L 200 52.5 L 196 54 L 196 52 Z " /><path fill="rgb(251,253,254)" stroke="rgb(251,253,254)" stroke-width="1" opacity="1" d="M 244 52 L 247 52.5 L 244 54.5 L 243.5 56 L 243 54.5 L 244 52 Z " /><path fill="rgb(251,253,254)" stroke="rgb(251,253,254)" stroke-width="1" opacity="1" d="M 248.5 52 L 249.5 54 Q 246.7 54.7 248.5 52 Z " /><path fill="rgb(251,253,254)" stroke="rgb(251,253,254)" stroke-width="1" opacity="1" d="M 254.5 52 L 256 52.5 L 253.5 54 L 254.5 52 Z " /><path fill="rgb(251,253,254)" stroke="rgb(251,253,254)" stroke-width="1" opacity="1" d="M 270.5 52 L 273 52.5 Q 272.3 54.8 268.5 54 L 268.5 53 L 270.5 52 Z " /><path fill="rgb(251,253,254)" stroke="rgb(251,253,254)" stroke-width="1" opacity="1" d="M 72.5 53 L 76 53.5 L 72.5 54 L 72.5 53 Z " /><path fill="rgb(251,253,254)" stroke="rgb(251,253,254)" stroke-width="1" opacity="1" d="M 142.5 53 L 144 53.5 L 141.5 55 L 142.5 53 Z " /><path fill="rgb(251,253,254)" stroke="rgb(251,253,254)" stroke-width="1" opacity="1" d="M 201.5 53 L 205 53.5 Q 203.8 56.3 202.5 54 L 201.5 53 Z " /><path fill="rgb(251,253,254)" stroke="rgb(251,253,254)" stroke-width="1" opacity="1" d="M 216 53 L 220 53.5 L 216.5 55 L 216 53 Z " /><path fill="rgb(251,253,254)" stroke="rgb(251,253,254)" stroke-width="1" opacity="1" d="M 238.5 53 Q 240.8 52.3 240 54.5 L 238.5 53 Z " /><path fill="rgb(251,253,254)" stroke="rgb(251,253,254)" stroke-width="1" opacity="1" d="M 274.5 53 Q 276.3 56.1 278 54.5 L 276.5 56 L 274.5 53 Z " /><path fill="rgb(251,253,254)" stroke="rgb(251,253,254)" stroke-width="1" opacity="1" d="M 286.5 53 Q 288.8 52.3 288 54.5 L 286.5 53 Z " /><path fill="rgb(251,253,254)" stroke="rgb(251,253,254)" stroke-width="1" opacity="1" d="M 100.5 54 L 114 54.5 L 100.5 55 L 100.5 54 Z " /><path fill="rgb(251,253,254)" stroke="rgb(251,253,254)" stroke-width="1" opacity="1" d="M 262.5 54 L 261.5 56 L 260 55.5 L 262.5 54 Z " /><path fill="rgb(251,253,254)" stroke="rgb(251,253,254)" stroke-width="1" opacity="1" d="M 239.5 56 L 241 63.5 L 241 65.5 L 239.5 73 L 239.5 56 Z " /><path fill="rgb(251,253,254)" stroke="rgb(251,253,254)" stroke-width="1" opacity="1" d="M 264.5 56 L 265 72 L 262.5 73 L 264 70.5 L 264 58.5 L 263 57.5 L 264.5 56 Z " /><path fill="rgb(251,253,254)" stroke="rgb(251,253,254)" stroke-width="1" opacity="1" d="M 24 57 L 31 57.5 L 24 59 L 24 57 Z " /><path fill="rgb(251,253,254)" stroke="rgb(251,253,254)" stroke-width="1" opacity="1" d="M 32.5 57 L 40 58 L 39.5 61 Q 38.1 57.4 32.5 58 L 32.5 57 Z " /><path fill="rgb(251,253,254)" stroke="rgb(251,253,254)" stroke-width="1" opacity="1" d="M 58.5 57 L 60 57.5 L 56.5 60 L 58.5 57 Z " /><path fill="rgb(251,253,254)" stroke="rgb(251,253,254)" stroke-width="1" opacity="1" d="M 64 57 L 66 57.5 L 64 58.5 L 64 57 Z " /><path fill="rgb(251,253,254)" stroke="rgb(251,253,254)" stroke-width="1" opacity="1" d="M 202.5 57 L 203 75.5 L 201.5 75 L 199 74.5 L 202 74 L 202 64.5 L 200.5 64 L 201 62.5 L 202.5 57 Z " /><path fill="rgb(251,253,254)" stroke="rgb(251,253,254)" stroke-width="1" opacity="1" d="M 275.5 57 L 278 57.5 Q 275.9 60.8 275.5 57 Z " /><path fill="rgb(251,253,254)" stroke="rgb(251,253,254)" stroke-width="1" opacity="1" d="M 87.5 58 L 88 61.5 L 87 61.5 L 87.5 58 Z " /><path fill="rgb(251,253,254)" stroke="rgb(251,253,254)" stroke-width="1" opacity="1" d="M 59 59 L 63 59.5 L 61 60 L 60.5 62 L 59 59 Z " /><path fill="rgb(251,253,254)" stroke="rgb(251,253,254)" stroke-width="1" opacity="1" d="M 180.5 59 L 182 62.5 L 180 61.5 L 180.5 59 Z " /><path fill="rgb(251,253,254)" stroke="rgb(251,253,254)" stroke-width="1" opacity="1" d="M 191 59 Q 193.7 57.9 193 60.5 L 191.5 63 L 191 59 Z " /><path fill="rgb(251,253,254)" stroke="rgb(251,253,254)" stroke-width="1" opacity="1" d="M 229 59 Q 231.7 57.9 231 60.5 L 229 61.5 L 229 59 Z " /><path fill="rgb(251,253,254)" stroke="rgb(251,253,254)" stroke-width="1" opacity="1" d="M 6.5 60 L 7 63.5 L 6 63.5 L 6.5 60 Z " /><path fill="rgb(251,253,254)" stroke="rgb(251,253,254)" stroke-width="1" opacity="1" d="M 83 60 L 85 60.5 L 84 63 L 81 62.5 L 83 62 L 83 60 Z " /><path fill="rgb(251,253,254)" stroke="rgb(251,253,254)" stroke-width="1" opacity="1" d="M 97 61 L 102 61 L 102 62.5 L 100.5 62 L 98 63.5 L 98 71.5 L 99 72.5 L 98 74.5 L 99 76.5 L 98 79 L 100 79.5 L 98.5 80 L 97 78.5 L 97 61 Z " /><path fill="rgb(251,253,254)" stroke="rgb(251,253,254)" stroke-width="1" opacity="1" d="M 109 61 L 111 61.5 L 109.5 64 L 109 61 Z " /><path fill="rgb(251,253,254)" stroke="rgb(251,253,254)" stroke-width="1" opacity="1" d="M 112.5 61 Q 114.8 60.3 114 62.5 L 114 64.5 L 113.5 72 L 113 62.5 L 112.5 61 Z " /><path fill="rgb(251,253,254)" stroke="rgb(251,253,254)" stroke-width="1" opacity="1" d="M 123.5 61 L 128 62.5 L 124.5 63 L 123.5 61 Z " /><path fill="rgb(251,253,254)" stroke="rgb(251,253,254)" stroke-width="1" opacity="1" d="M 144 61 Q 147.8 60 149 62.5 L 147.5 62 L 144.5 63 L 144 61 Z " /><path fill="rgb(251,253,254)" stroke="rgb(251,253,254)" stroke-width="1" opacity="1" d="M 155.5 61 L 156 63.5 L 155 63.5 L 155.5 61 Z " /><path fill="rgb(251,253,254)" stroke="rgb(251,253,254)" stroke-width="1" opacity="1" d="M 211.5 61 L 212 65.5 L 211 65.5 L 211.5 61 Z " /><path fill="rgb(251,253,254)" stroke="rgb(251,253,254)" stroke-width="1" opacity="1" d="M 251.5 61 Q 254.8 59.9 254 62.5 L 254.5 64 L 251.5 61 Z " /><path fill="rgb(251,253,254)" stroke="rgb(251,253,254)" stroke-width="1" opacity="1" d="M 35.5 62 L 38 63 L 40 66.5 L 35.5 62 Z " /><path fill="rgb(251,253,254)" stroke="rgb(251,253,254)" stroke-width="1" opacity="1" d="M 231.5 62 L 232 65 L 227 63.5 L 229.5 63 L 231 63.5 L 231.5 62 Z " /><path fill="rgb(251,253,254)" stroke="rgb(251,253,254)" stroke-width="1" opacity="1" d="M 134.5 63 L 133.5 65 L 134.5 63 Z " /><path fill="rgb(251,253,254)" stroke="rgb(251,253,254)" stroke-width="1" opacity="1" d="M 43.5 64 L 45 66.5 L 44 66.5 L 43.5 64 Z " /><path fill="rgb(251,253,254)" stroke="rgb(251,253,254)" stroke-width="1" opacity="1" d="M 116.5 64 L 117 73.5 L 116 75.5 L 116.5 77 Q 115.3 74.8 114 77.5 L 114.5 79 L 110.5 80 L 111.5 78 Q 114.1 78.7 113 76 L 115 76 L 115 73.5 L 116 72.5 L 116.5 64 Z " /><path fill="rgb(251,253,254)" stroke="rgb(251,253,254)" stroke-width="1" opacity="1" d="M 148.5 64 L 150 67 L 147 65.5 L 148.5 64 Z " /><path fill="rgb(251,253,254)" stroke="rgb(251,253,254)" stroke-width="1" opacity="1" d="M 152.5 64 L 153 66 L 151 65.5 L 152.5 64 Z " /><path fill="rgb(251,253,254)" stroke="rgb(251,253,254)" stroke-width="1" opacity="1" d="M 256.5 64 L 257 66.5 L 256 66.5 L 256.5 64 Z " /><path fill="rgb(251,253,254)" stroke="rgb(251,253,254)" stroke-width="1" opacity="1" d="M 287.5 64 L 288 72.5 L 287 72.5 L 287.5 64 Z " /><path fill="rgb(251,253,254)" stroke="rgb(251,253,254)" stroke-width="1" opacity="1" d="M 79.5 65 L 80 67.5 L 79 67.5 L 79.5 65 Z " /><path fill="rgb(251,253,254)" stroke="rgb(251,253,254)" stroke-width="1" opacity="1" d="M 154.5 65 L 157 66 Q 158.1 68.7 155.5 68 L 154.5 65 Z " /><path fill="rgb(251,253,254)" stroke="rgb(251,253,254)" stroke-width="1" opacity="1" d="M 144.5 66 L 147 67.5 L 145.5 68 L 144.5 66 Z " /><path fill="rgb(251,253,254)" stroke="rgb(251,253,254)" stroke-width="1" opacity="1" d="M 213.5 66 L 214 68.5 L 213 68.5 L 213.5 66 Z " /><path fill="rgb(251,253,254)" stroke="rgb(251,253,254)" stroke-width="1" opacity="1" d="M 211.5 67 L 212 70.5 L 211 70.5 L 211.5 67 Z " /><path fill="rgb(251,253,254)" stroke="rgb(251,253,254)" stroke-width="1" opacity="1" d="M 252.5 67 L 256 68.5 L 253.5 69 L 252.5 67 Z " /><path fill="rgb(251,253,254)" stroke="rgb(251,253,254)" stroke-width="1" opacity="1" d="M 40.5 68 L 43 69.5 L 44 71.5 L 42 70.5 Q 42.8 68.3 40.5 69 L 40.5 68 Z " /><path fill="rgb(251,253,254)" stroke="rgb(251,253,254)" stroke-width="1" opacity="1" d="M 216.5 68 L 222 69.5 L 219.5 70 L 216.5 69 L 216.5 68 Z " /><path fill="rgb(251,253,254)" stroke="rgb(251,253,254)" stroke-width="1" opacity="1" d="M 231.5 68 L 232 75 Q 229.3 73.9 230 76.5 L 228 75.5 L 231 74 L 231.5 68 Z " /><path fill="rgb(251,253,254)" stroke="rgb(251,253,254)" stroke-width="1" opacity="1" d="M 77.5 69 Q 79.8 68.3 79 70.5 L 77.5 69 Z " /><path fill="rgb(251,253,254)" stroke="rgb(251,253,254)" stroke-width="1" opacity="1" d="M 154.5 69 Q 156.8 68.3 156 70.5 L 154.5 69 Z " /><path fill="rgb(251,253,254)" stroke="rgb(251,253,254)" stroke-width="1" opacity="1" d="M 134.5 70 L 137 71 L 139 74.5 L 135 72.5 Q 136.9 77.9 133.5 77 L 134 78.5 Q 134.8 80.8 132.5 80 L 131.5 77 L 130 76.5 L 131.5 76 Q 132.8 78.3 134 75.5 L 135 71.5 L 134.5 70 Z " /><path fill="rgb(251,253,254)" stroke="rgb(251,253,254)" stroke-width="1" opacity="1" d="M 166.5 70 Q 169.1 69.2 168 72.5 L 167 72.5 L 166.5 70 Z " /><path fill="rgb(251,253,254)" stroke="rgb(251,253,254)" stroke-width="1" opacity="1" d="M 75.5 71 L 78 72.5 L 77 77 Q 81.1 75.3 80 79.5 L 76.5 77 L 73 75.5 L 77 75 Q 78.5 71.2 75.5 72 L 75.5 71 Z " /><path fill="rgb(251,253,254)" stroke="rgb(251,253,254)" stroke-width="1" opacity="1" d="M 185.5 71 L 187 75.5 L 185 74.5 L 185.5 71 Z " /><path fill="rgb(251,253,254)" stroke="rgb(251,253,254)" stroke-width="1" opacity="1" d="M 199.5 71 L 198.5 73 L 197 72.5 L 199.5 71 Z " /><path fill="rgb(251,253,254)" stroke="rgb(251,253,254)" stroke-width="1" opacity="1" d="M 49 72 Q 52 71 51 74 Q 48 75 49 72 Z " /><path fill="rgb(251,253,254)" stroke="rgb(251,253,254)" stroke-width="1" opacity="1" d="M 109.5 72 L 110 74 L 113.5 73 L 113.5 74 L 109.5 76 L 109.5 72 Z " /><path fill="rgb(251,253,254)" stroke="rgb(251,253,254)" stroke-width="1" opacity="1" d="M 181.5 72 L 182 80 Q 179 81.3 180 77.5 L 179.5 76 L 181 76 L 181.5 72 Z " /><path fill="rgb(251,253,254)" stroke="rgb(251,253,254)" stroke-width="1" opacity="1" d="M 44.5 73 L 43.5 75 L 44.5 73 Z " /><path fill="rgb(251,253,254)" stroke="rgb(251,253,254)" stroke-width="1" opacity="1" d="M 101.5 73 L 105 79.5 L 102 77.5 L 101.5 73 Z " /><path fill="rgb(251,253,254)" stroke="rgb(251,253,254)" stroke-width="1" opacity="1" d="M 52 74 L 54 74.5 L 52.5 77 L 52 74 Z " /><path fill="rgb(251,253,254)" stroke="rgb(251,253,254)" stroke-width="1" opacity="1" d="M 240.5 74 L 244 74.5 Q 242.8 77.3 241.5 75 L 240.5 74 Z " /><path fill="rgb(251,253,254)" stroke="rgb(251,253,254)" stroke-width="1" opacity="1" d="M 32.5 75 L 39 75.5 L 32.5 76 L 32.5 75 Z " /><path fill="rgb(251,253,254)" stroke="rgb(251,253,254)" stroke-width="1" opacity="1" d="M 46.5 75 L 49 75 Q 47.5 78.8 50.5 78 L 51 80.5 L 49 82.5 L 48.5 84 L 48 82.5 L 49 78.5 L 48 76 L 46.5 75 Z " /><path fill="rgb(251,253,254)" stroke="rgb(251,253,254)" stroke-width="1" opacity="1" d="M 211.5 75 L 213 75.5 L 211 76.5 L 214 77.5 L 204 79 Q 202.7 75.7 207.5 77 L 208.5 78 L 211.5 75 Z " /><path fill="rgb(251,253,254)" stroke="rgb(251,253,254)" stroke-width="1" opacity="1" d="M 261.5 75 L 267 76.5 L 263.5 78 L 261.5 75 Z " /><path fill="rgb(251,253,254)" stroke="rgb(251,253,254)" stroke-width="1" opacity="1" d="M 274.5 75 L 276 78.5 L 273.5 80 L 270 77.5 L 274.5 75 Z " /><path fill="rgb(251,253,254)" stroke="rgb(251,253,254)" stroke-width="1" opacity="1" d="M 278.5 75 L 279 77 L 277 76.5 L 278.5 75 Z " /><path fill="rgb(251,253,254)" stroke="rgb(251,253,254)" stroke-width="1" opacity="1" d="M 1.5 76 L 2 78 L 0 77.5 L 1.5 76 Z " /><path fill="rgb(251,253,254)" stroke="rgb(251,253,254)" stroke-width="1" opacity="1" d="M 120.5 76 L 128 76.5 L 120.5 77 L 120.5 76 Z " /><path fill="rgb(251,253,254)" stroke="rgb(251,253,254)" stroke-width="1" opacity="1" d="M 136.5 76 L 138 78.5 L 136 79 L 136.5 76 Z " /><path fill="rgb(251,253,254)" stroke="rgb(251,253,254)" stroke-width="1" opacity="1" d="M 156.5 76 L 160 77.5 L 157.5 78 L 156.5 76 Z " /><path fill="rgb(251,253,254)" stroke="rgb(251,253,254)" stroke-width="1" opacity="1" d="M 167.5 76 L 168.5 78 Q 170.3 74.3 172 77.5 Q 172.9 80.5 168.5 79 L 167.5 76 Z " /><path fill="rgb(251,253,254)" stroke="rgb(251,253,254)" stroke-width="1" opacity="1" d="M 196.5 76 L 195.5 78 L 196.5 76 Z " /><path fill="rgb(251,253,254)" stroke="rgb(251,253,254)" stroke-width="1" opacity="1" d="M 216 76 Q 218.7 77.9 225.5 77 L 229 79.5 L 227.5 80 Q 224.2 76.2 216 78 L 216 76 Z " /><path fill="rgb(251,253,254)" stroke="rgb(251,253,254)" stroke-width="1" opacity="1" d="M 239.5 76 L 239 77.5 Q 239.8 79.8 237.5 79 L 235.5 78 L 232.5 79 L 233.5 77 Q 238.3 78.3 239.5 76 Z " /><path fill="rgb(251,253,254)" stroke="rgb(251,253,254)" stroke-width="1" opacity="1" d="M 244 76 Q 247 75 246 78 Q 243 79 244 76 Z " /><path fill="rgb(251,253,254)" stroke="rgb(251,253,254)" stroke-width="1" opacity="1" d="M 29.5 77 Q 33.3 76 32 79 L 24.5 79 L 23.5 80 L 23 78 L 29.5 77 Z " /><path fill="rgb(251,253,254)" stroke="rgb(251,253,254)" stroke-width="1" opacity="1" d="M 44.5 77 L 45.5 79 L 43.5 80 L 43 78.5 L 44.5 77 Z " /><path fill="rgb(251,253,254)" stroke="rgb(251,253,254)" stroke-width="1" opacity="1" d="M 71 77 L 73 77.5 L 71 78.5 L 71 77 Z " /><path fill="rgb(251,253,254)" stroke="rgb(251,253,254)" stroke-width="1" opacity="1" d="M 146 77 L 155 78.5 L 152.5 80 L 149.5 79 Q 144.7 80.3 146 77 Z " /><path fill="rgb(251,253,254)" stroke="rgb(251,253,254)" stroke-width="1" opacity="1" d="M 188.5 77 Q 193.9 75.1 193 78.5 L 190.5 79 L 188.5 77 Z " /><path fill="rgb(251,253,254)" stroke="rgb(251,253,254)" stroke-width="1" opacity="1" d="M 248 77 L 250 77.5 L 247 79.5 L 248 77 Z " /><path fill="rgb(251,253,254)" stroke="rgb(251,253,254)" stroke-width="1" opacity="1" d="M 253.5 77 Q 257.3 76 256 79 L 253.5 77 Z " /><path fill="rgb(251,253,254)" stroke="rgb(251,253,254)" stroke-width="1" opacity="1" d="M 257.5 77 L 258.5 79 L 257.5 77 Z " /><path fill="rgb(251,253,254)" stroke="rgb(251,253,254)" stroke-width="1" opacity="1" d="M 280.5 77 L 282.5 77 L 286 78.5 L 285.5 80 L 285 78 L 281.5 79 L 280.5 77 Z " /><path fill="rgb(251,253,254)" stroke="rgb(251,253,254)" stroke-width="1" opacity="1" d="M 120.5 78 Q 127.3 76.7 130 79.5 L 123.5 80 L 120.5 79 L 120.5 78 Z " /><path fill="rgb(251,253,254)" stroke="rgb(251,253,254)" stroke-width="1" opacity="1" d="M 36.5 79 L 40 79.5 L 36.5 80 L 36.5 79 Z " /><path fill="rgb(251,253,254)" stroke="rgb(251,253,254)" stroke-width="1" opacity="1" d="M 221.5 79 L 224 79.5 L 221.5 80 L 221.5 79 Z " /><path fill="rgb(251,253,254)" stroke="rgb(251,253,254)" stroke-width="1" opacity="1" d="M 241.5 79 L 245 79.5 L 241.5 80 L 241.5 79 Z " /><path fill="rgb(251,253,254)" stroke="rgb(251,253,254)" stroke-width="1" opacity="1" d="M 23.5 81 L 24 83.5 L 23 83.5 L 23.5 81 Z " /><path fill="rgb(251,253,254)" stroke="rgb(251,253,254)" stroke-width="1" opacity="1" d="M 68.5 83 L 69 85 L 67 84.5 L 68.5 83 Z " /><path fill="rgb(251,253,254)" stroke="rgb(251,253,254)" stroke-width="1" opacity="1" d="M 30.5 88 L 36 89 Q 37.2 92.7 32 91 Q 33.1 88.3 30.5 89 L 30.5 88 Z " /><path fill="rgb(251,253,254)" stroke="rgb(251,253,254)" stroke-width="1" opacity="1" d="M 39.5 88 L 41 92 L 43 92.5 Q 39.6 95.1 32.5 94 L 30 92.5 L 31.5 92 L 33.5 93 L 37.5 92 L 40 93 Q 41.5 89.2 38.5 90 L 39.5 88 Z " /><path fill="rgb(251,253,254)" stroke="rgb(251,253,254)" stroke-width="1" opacity="1" d="M 41.5 88 Q 46.3 86.3 45 90.5 L 44 90.5 Q 44.8 87.9 41.5 89 L 41.5 88 Z " /><path fill="rgb(251,253,254)" stroke="rgb(251,253,254)" stroke-width="1" opacity="1" d="M 64.5 91 L 67.5 92 L 69 91.5 L 66 93.5 L 66.5 92 Q 63.2 90.9 64 93.5 L 63 93.5 L 64.5 91 Z " /><path fill="rgb(251,253,254)" stroke="rgb(251,253,254)" stroke-width="1" opacity="1" d="M 70.5 93 L 69.5 95 L 70.5 93 Z " /><path fill="rgb(251,253,254)" stroke="rgb(251,253,254)" stroke-width="1" opacity="1" d="M 9.5 96 L 10.5 98 L 9.5 96 Z " /><path fill="rgb(251,253,254)" stroke="rgb(251,253,254)" stroke-width="1" opacity="1" d="M 8.5 99 L 9 102 Q 11.7 103.1 11 100.5 L 12 100.5 Q 13.3 104.3 9.5 103 Q 7 102 8.5 99 Z " /><path fill="rgb(251,253,254)" stroke="rgb(251,253,254)" stroke-width="1" opacity="1" d="M 61 100 Q 63.7 98.9 63 101.5 L 64 103.5 L 63 103.5 Q 63.7 100.9 61 102 L 61 100 Z " /><path fill="rgb(251,253,254)" stroke="rgb(251,253,254)" stroke-width="1" opacity="1" d="M 17.5 106 L 21 108.5 L 16 109 L 17.5 106 Z " /><path fill="rgb(251,253,254)" stroke="rgb(251,253,254)" stroke-width="1" opacity="1" d="M 22.5 109 L 26 111.5 L 24.5 112 L 20.5 111 L 19 111.5 L 22.5 109 Z " /><path fill="rgb(251,253,254)" stroke="rgb(251,253,254)" stroke-width="1" opacity="1" d="M 48 109 Q 51 108 50 111 Q 47 112 48 109 Z " /><path fill="rgb(251,253,254)" stroke="rgb(251,253,254)" stroke-width="1" opacity="1" d="M 27.5 111 L 32 111.5 L 27.5 112 L 27.5 111 Z " /><path fill="rgb(251,253,254)" stroke="rgb(251,253,254)" stroke-width="1" opacity="1" d="M 41.5 111 L 45 111.5 L 41.5 112 L 41.5 111 Z " /><path fill="rgb(251,253,254)" stroke="rgb(251,253,254)" stroke-width="1" opacity="1" d="M 51.5 111 L 54 111.5 L 51.5 112 L 51.5 111 Z " /><path fill="rgb(254,254,254)" stroke="rgb(254,254,254)" stroke-width="1" opacity="1" d="M 0.5 40 L 1 42.5 L 0 42.5 L 0.5 40 Z " /><path fill="rgb(254,254,254)" stroke="rgb(254,254,254)" stroke-width="1" opacity="1" d="M 18.5 43 L 19.5 45 L 18.5 43 Z " /><path fill="rgb(254,254,254)" stroke="rgb(254,254,254)" stroke-width="1" opacity="1" d="M 97.5 48 L 100 48.5 L 97.5 49 L 97.5 48 Z " /><path fill="rgb(254,254,254)" stroke="rgb(254,254,254)" stroke-width="1" opacity="1" d="M 103.5 48 L 112 48.5 L 103.5 49 L 103.5 48 Z " /><path fill="rgb(254,254,254)" stroke="rgb(254,254,254)" stroke-width="1" opacity="1" d="M 120.5 48 L 129.5 48 L 130 49.5 L 128.5 49 L 120.5 49 L 120.5 48 Z " /><path fill="rgb(254,254,254)" stroke="rgb(254,254,254)" stroke-width="1" opacity="1" d="M 131.5 48 L 134 48.5 L 131.5 49 L 131.5 48 Z " /><path fill="rgb(254,254,254)" stroke="rgb(254,254,254)" stroke-width="1" opacity="1" d="M 189.5 48 Q 193.3 47 192 50 L 189.5 48 Z " /><path fill="rgb(254,254,254)" stroke="rgb(254,254,254)" stroke-width="1" opacity="1" d="M 273.5 48 L 275 50.5 L 273 49.5 L 273.5 48 Z " /><path fill="rgb(254,254,254)" stroke="rgb(254,254,254)" stroke-width="1" opacity="1" d="M 279.5 48 L 277.5 51 L 279.5 48 Z " /><path fill="rgb(254,254,254)" stroke="rgb(254,254,254)" stroke-width="1" opacity="1" d="M 283.5 48 L 284.5 50 L 281 49.5 L 283.5 48 Z " /><path fill="rgb(254,254,254)" stroke="rgb(254,254,254)" stroke-width="1" opacity="1" d="M 139.5 49 L 140.5 50 L 149 50.5 L 143.5 52 Q 139.5 51.5 139.5 49 Z " /><path fill="rgb(254,254,254)" stroke="rgb(254,254,254)" stroke-width="1" opacity="1" d="M 256.5 49 L 259 50.5 L 257.5 51 L 256.5 49 Z " /><path fill="rgb(254,254,254)" stroke="rgb(254,254,254)" stroke-width="1" opacity="1" d="M 82.5 50 L 84 52.5 L 83 52.5 L 82.5 50 Z " /><path fill="rgb(254,254,254)" stroke="rgb(254,254,254)" stroke-width="1" opacity="1" d="M 120.5 50 L 128 50.5 L 120.5 51 L 120.5 50 Z " /><path fill="rgb(254,254,254)" stroke="rgb(254,254,254)" stroke-width="1" opacity="1" d="M 96.5 51 L 99 51.5 L 96.5 52 L 96.5 51 Z " /><path fill="rgb(254,254,254)" stroke="rgb(254,254,254)" stroke-width="1" opacity="1" d="M 104.5 51 L 112 51.5 L 104.5 52 L 104.5 51 Z " /><path fill="rgb(254,254,254)" stroke="rgb(254,254,254)" stroke-width="1" opacity="1" d="M 243 51 L 248 51.5 L 244 52 L 242.5 56 L 242 53.5 L 243 51 Z " /><path fill="rgb(254,254,254)" stroke="rgb(254,254,254)" stroke-width="1" opacity="1" d="M 155.5 52 L 157 52.5 L 154.5 54 L 155.5 52 Z " /><path fill="rgb(254,254,254)" stroke="rgb(254,254,254)" stroke-width="1" opacity="1" d="M 163 52 L 165 52.5 L 163 53.5 L 163 52 Z " /><path fill="rgb(254,254,254)" stroke="rgb(254,254,254)" stroke-width="1" opacity="1" d="M 249.5 52 L 250.5 54 L 249.5 52 Z " /><path fill="rgb(254,254,254)" stroke="rgb(254,254,254)" stroke-width="1" opacity="1" d="M 100.5 53 L 114 53.5 L 100.5 54 L 100.5 53 Z " /><path fill="rgb(254,254,254)" stroke="rgb(254,254,254)" stroke-width="1" opacity="1" d="M 118.5 53 L 127.5 53 L 128 55 L 120.5 55 L 118.5 53 Z " /><path fill="rgb(254,254,254)" stroke="rgb(254,254,254)" stroke-width="1" opacity="1" d="M 168 53 L 170 53.5 L 168 54.5 L 168 53 Z " /><path fill="rgb(254,254,254)" stroke="rgb(254,254,254)" stroke-width="1" opacity="1" d="M 26.5 56 L 30 56.5 L 26.5 57 L 26.5 56 Z " /><path fill="rgb(254,254,254)" stroke="rgb(254,254,254)" stroke-width="1" opacity="1" d="M 3.5 58 L 4 60.5 L 3 60.5 L 3.5 58 Z " /><path fill="rgb(254,254,254)" stroke="rgb(254,254,254)" stroke-width="1" opacity="1" d="M 168 59 L 170 59.5 L 168 60.5 L 168 59 Z " /><path fill="rgb(254,254,254)" stroke="rgb(254,254,254)" stroke-width="1" opacity="1" d="M 134.5 61 L 136 61.5 L 133.5 63 L 134.5 61 Z " /><path fill="rgb(254,254,254)" stroke="rgb(254,254,254)" stroke-width="1" opacity="1" d="M 254.5 62 L 253.5 64 L 254.5 62 Z " /><path fill="rgb(254,254,254)" stroke="rgb(254,254,254)" stroke-width="1" opacity="1" d="M 6 64 L 8 64.5 L 8 72 L 6 71.5 L 6 64 Z " /><path fill="rgb(254,254,254)" stroke="rgb(254,254,254)" stroke-width="1" opacity="1" d="M 98.5 64 L 100 72.5 L 98 71.5 L 98.5 64 Z " /><path fill="rgb(254,254,254)" stroke="rgb(254,254,254)" stroke-width="1" opacity="1" d="M 101.5 64 L 102 71.5 L 101 71.5 L 101.5 64 Z " /><path fill="rgb(254,254,254)" stroke="rgb(254,254,254)" stroke-width="1" opacity="1" d="M 109.5 64 L 110 71.5 L 109 71.5 L 109.5 64 Z " /><path fill="rgb(254,254,254)" stroke="rgb(254,254,254)" stroke-width="1" opacity="1" d="M 182.5 64 L 183 71.5 L 182 71.5 L 182.5 64 Z " /><path fill="rgb(254,254,254)" stroke="rgb(254,254,254)" stroke-width="1" opacity="1" d="M 200.5 64 L 201 71.5 L 199 70.5 L 200.5 64 Z " /><path fill="rgb(254,254,254)" stroke="rgb(254,254,254)" stroke-width="1" opacity="1" d="M 253.5 65 L 253.5 68 Q 250.5 66.5 253.5 65 Z " /><path fill="rgb(254,254,254)" stroke="rgb(254,254,254)" stroke-width="1" opacity="1" d="M 211.5 66 Q 213.8 65.3 213 67.5 L 211.5 66 Z " /><path fill="rgb(254,254,254)" stroke="rgb(254,254,254)" stroke-width="1" opacity="1" d="M 2.5 72 L 3 73.5 L 0.5 77 L 1 75.5 L 2.5 72 Z " /><path fill="rgb(254,254,254)" stroke="rgb(254,254,254)" stroke-width="1" opacity="1" d="M 79.5 74 L 80 76.5 L 79 76.5 L 79.5 74 Z " /><path fill="rgb(254,254,254)" stroke="rgb(254,254,254)" stroke-width="1" opacity="1" d="M 213.5 75 L 214.5 77 L 213.5 75 Z " /><path fill="rgb(254,254,254)" stroke="rgb(254,254,254)" stroke-width="1" opacity="1" d="M 275.5 75 Q 278.5 76.5 275.5 78 L 275.5 75 Z " /><path fill="rgb(254,254,254)" stroke="rgb(254,254,254)" stroke-width="1" opacity="1" d="M 24.5 76 L 30 76.5 L 24.5 77 L 24.5 76 Z " /><path fill="rgb(254,254,254)" stroke="rgb(254,254,254)" stroke-width="1" opacity="1" d="M 138.5 76 L 141 76.5 L 140.5 79 L 138.5 76 Z " /><path fill="rgb(254,254,254)" stroke="rgb(254,254,254)" stroke-width="1" opacity="1" d="M 154.5 76 L 155.5 78 L 154.5 76 Z " /><path fill="rgb(254,254,254)" stroke="rgb(254,254,254)" stroke-width="1" opacity="1" d="M 116.5 77 L 117.5 79 L 116.5 77 Z " /><path fill="rgb(254,254,254)" stroke="rgb(254,254,254)" stroke-width="1" opacity="1" d="M 178 77 Q 181 75.8 180 79.5 L 178 78.5 L 178 77 Z " /><path fill="rgb(254,254,254)" stroke="rgb(254,254,254)" stroke-width="1" opacity="1" d="M 48.5 78 L 49 80 L 46 79.5 L 48.5 78 Z " /><path fill="rgb(254,254,254)" stroke="rgb(254,254,254)" stroke-width="1" opacity="1" d="M 74.5 78 L 75.5 80 L 74.5 78 Z " /><path fill="rgb(254,254,254)" stroke="rgb(254,254,254)" stroke-width="1" opacity="1" d="M 1.5 80 L 3 82.5 L 1.5 86 L 1.5 80 Z " /><path fill="rgb(254,254,254)" stroke="rgb(254,254,254)" stroke-width="1" opacity="1" d="M 5.5 80 L 6 83.5 L 5 83.5 L 5.5 80 Z " /><path fill="rgb(254,254,254)" stroke="rgb(254,254,254)" stroke-width="1" opacity="1" d="M 67 86 L 69 86.5 L 67 87.5 L 67 86 Z " /><path fill="rgb(254,254,254)" stroke="rgb(254,254,254)" stroke-width="1" opacity="1" d="M 37.5 88 L 39 88.5 L 36.5 90 L 37.5 88 Z " /><path fill="rgb(254,254,254)" stroke="rgb(254,254,254)" stroke-width="1" opacity="1" d="M 200 88 L 231.5 88 L 232 88.5 L 232 96 L 200.5 96 L 200 95.5 L 200 88 Z " /><path fill="rgb(254,254,254)" stroke="rgb(254,254,254)" stroke-width="1" opacity="1" d="M 240 88 L 248 88 L 248 96 L 240 96 L 240 88 Z " /><path fill="rgb(254,254,254)" stroke="rgb(254,254,254)" stroke-width="1" opacity="1" d="M 256 88 L 280 88 L 280 96 L 256 96 L 256 88 Z " /><path fill="rgb(254,254,254)" stroke="rgb(254,254,254)" stroke-width="1" opacity="1" d="M 67.5 89 L 68 91.5 L 66 92.5 L 67.5 89 Z " /><path fill="rgb(254,254,254)" stroke="rgb(254,254,254)" stroke-width="1" opacity="1" d="M 9.5 101 L 8.5 103 L 9.5 101 Z " /><path fill="rgb(255,255,255)" stroke="rgb(255,255,255)" stroke-width="1" opacity="1" d="M 0 0 L 300 0 L 300 150 L 0.5 150 L 0 149.5 L 0 88 Q 4.1 89.7 3 85.5 L 2 83.5 L 5 82 L 4 88 Q 10.4 85.7 8 93.5 L 8 95.5 L 10.5 98 L 12 98.5 L 9 99 L 8.5 97 L 8 104 L 14 103.5 L 12 100.5 L 13 100.5 Q 17.1 102.8 16 109 Q 19 108 18 111 L 16 111.5 L 22.5 112 L 24.5 112 L 46.5 112 L 47.5 111 Q 49.3 113.8 55.5 112 L 55.5 111 L 54 110.5 L 56 110 L 54.5 107 L 53 106.5 L 54.5 106 L 56 106.5 Q 54.9 103.2 57.5 104 L 61 101.5 Q 61.8 103.8 59.5 103 L 59.5 104 Q 66.7 106.3 64 98.5 L 64 96.5 Q 62.3 90.7 66 92 L 65 95.5 L 70 96 Q 69 93 72 94 L 72 90 L 68.5 91 L 68 88 L 72 88 L 72 80.5 L 70 80.5 L 73.5 78 L 77.5 80 L 80 79.5 L 80 69.5 L 79 68.5 L 80 64 L 88 64 L 88 53 L 85.5 53 L 80.5 49 L 77 50.5 L 77.5 52 L 75.5 51 L 72 52 L 73 54.5 L 69.5 57 L 67.5 56 L 65.5 57 Q 63.8 54.3 57.5 56 L 58.5 59 L 56 57.5 Q 54.3 64.8 58 66.5 L 56 66.5 L 57 69.5 L 56 72 L 48 72 L 48 68.5 L 45 67 Q 44 64 47 65 L 47.5 67 L 48 64 L 40 65 L 40 63 Q 37.3 64.1 38 61.5 L 37.5 60 Q 39.8 59.3 39 61.5 L 40 61.5 L 40 56 L 33.5 56 L 31.5 56 Q 25.2 54.3 23.5 57 L 23 54.5 L 24 53.5 L 24 46 L 22 45.5 L 24 40 L 16.5 40 L 15.5 41 L 14.5 39 L 16 39 L 16 34 L 12 33.5 L 16 32.5 L 4.5 32 L 2.5 33 L 0 32 L 0 0 Z M 72 48 L 72 50 L 80 49 L 72 48 Z M 96 48 L 96 50 L 99 51 L 96 51 L 96 64 L 97 65 Q 99 71 96 73 L 96 80 L 103 80 L 105 80 L 108 79 L 105 78 L 108 77 L 109 80 L 113 79 L 115 80 L 117 80 L 121 79 L 130 80 L 132 80 L 144 80 L 145 79 L 146 80 L 156 80 L 155 79 L 158 79 Q 157 81 161 80 L 164 79 L 166 80 L 165 79 L 168 78 L 167 80 L 172 80 L 174 80 L 179 79 L 180 80 L 189 80 L 191 80 L 196 80 L 196 78 L 198 78 L 198 80 L 202 79 L 205 80 L 207 80 Q 211 81 213 79 L 216 80 L 217 78 L 219 80 L 231 80 L 235 80 Q 244 82 248 78 L 248 80 L 254 80 L 250 79 L 250 78 Q 255 77 257 80 L 281 80 L 277 78 L 277 77 Q 282 76 283 80 Q 289 82 288 78 L 285 78 L 288 77 L 288 65 L 287 64 L 288 54 L 288 52 L 288 48 L 273 48 L 275 51 Q 279 52 280 49 L 280 53 L 278 54 L 274 52 L 272 53 L 269 52 L 272 51 L 272 50 Q 269 51 270 48 L 264 49 L 262 48 L 248 49 L 256 49 L 258 49 L 260 50 L 258 50 L 258 51 L 262 50 L 262 53 L 266 52 L 266 55 L 265 53 L 264 57 L 263 55 L 259 52 Q 255 53 256 50 L 253 52 Q 249 53 250 50 L 243 51 L 242 54 L 244 58 L 242 56 Q 238 57 240 53 L 240 48 L 237 49 L 233 48 Q 231 52 229 48 L 214 49 L 222 51 L 222 52 L 214 50 L 214 52 L 213 48 L 209 49 L 207 49 L 203 48 L 201 48 L 196 49 L 200 49 L 200 50 L 195 50 Q 195 47 190 48 L 190 50 Q 186 51 187 48 L 179 49 L 183 52 L 180 52 L 180 51 L 176 50 L 178 49 L 166 48 L 166 51 L 164 50 L 164 48 L 160 50 L 158 50 L 160 49 L 160 48 L 155 49 L 151 48 L 149 48 L 146 49 L 144 48 Q 138 46 139 50 L 136 50 L 138 49 L 138 48 L 131 49 L 134 49 L 134 50 Q 129 51 130 48 L 96 48 Z M 85 49 Q 84 52 88 51 Q 89 48 85 49 Z M 200 88 L 200 96 L 201 96 L 232 96 L 232 89 L 232 88 L 200 88 Z M 240 88 L 240 96 L 248 96 L 248 88 L 240 88 Z M 256 88 L 256 96 L 280 96 L 280 88 L 256 88 Z " /><path fill="rgb(255,255,255)" stroke="rgb(255,255,255)" stroke-width="1" opacity="1" d="M 1.5 40 L 2 44.5 L 0.5 48 L 0 45.5 L 1.5 40 Z " /><path fill="rgb(255,255,255)" stroke="rgb(255,255,255)" stroke-width="1" opacity="1" d="M 114.5 49 L 120 50 L 119.5 52 Q 118.8 49.2 114.5 50 Q 113 53.5 111.5 51 L 103 50.5 L 113.5 50 L 114.5 49 Z " /><path fill="rgb(255,255,255)" stroke="rgb(255,255,255)" stroke-width="1" opacity="1" d="M 201.5 50 L 202 52 L 200 51.5 L 201.5 50 Z " /><path fill="rgb(255,255,255)" stroke="rgb(255,255,255)" stroke-width="1" opacity="1" d="M 134.5 51 Q 136.8 50.3 136 52.5 L 134.5 51 Z " /><path fill="rgb(255,255,255)" stroke="rgb(255,255,255)" stroke-width="1" opacity="1" d="M 139.5 51 L 143 51.5 L 139.5 52 L 139.5 51 Z " /><path fill="rgb(255,255,255)" stroke="rgb(255,255,255)" stroke-width="1" opacity="1" d="M 148.5 51 L 151 51.5 L 148.5 52 L 148.5 51 Z " /><path fill="rgb(255,255,255)" stroke="rgb(255,255,255)" stroke-width="1" opacity="1" d="M 154 51 L 157 51.5 L 154.5 53 L 154 51 Z " /><path fill="rgb(255,255,255)" stroke="rgb(255,255,255)" stroke-width="1" opacity="1" d="M 161.5 51 L 164 51.5 Q 161.9 54.8 161.5 51 Z " /><path fill="rgb(255,255,255)" stroke="rgb(255,255,255)" stroke-width="1" opacity="1" d="M 4.5 52 L 7 74.5 L 5.5 80 L 5 72 Q 1.2 70.5 2 73.5 L 4 80 Q 0 81.4 2 74.5 L 1 74.5 L 0.5 76 L 0 56.5 L 1 56.5 L 1 63.5 L 3 64 L 4.5 52 Z " /><path fill="rgb(255,255,255)" stroke="rgb(255,255,255)" stroke-width="1" opacity="1" d="M 80 52 L 82.5 52 L 87 55.5 Q 85.8 58.3 84.5 56 Q 81.9 56.7 83 54 L 80 54 L 80 52 Z " /><path fill="rgb(255,255,255)" stroke="rgb(255,255,255)" stroke-width="1" opacity="1" d="M 165.5 52 L 166 54 L 164 53.5 L 165.5 52 Z " /><path fill="rgb(255,255,255)" stroke="rgb(255,255,255)" stroke-width="1" opacity="1" d="M 190.5 52 L 193 52.5 L 190.5 53 L 190.5 52 Z " /><path fill="rgb(255,255,255)" stroke="rgb(255,255,255)" stroke-width="1" opacity="1" d="M 141.5 53 L 140.5 55 L 139 54.5 L 141.5 53 Z " /><path fill="rgb(255,255,255)" stroke="rgb(255,255,255)" stroke-width="1" opacity="1" d="M 146.5 53 L 152 53.5 L 146.5 54 L 146.5 53 Z " /><path fill="rgb(255,255,255)" stroke="rgb(255,255,255)" stroke-width="1" opacity="1" d="M 170.5 53 L 174 53.5 L 170.5 54 L 170.5 53 Z " /><path fill="rgb(255,255,255)" stroke="rgb(255,255,255)" stroke-width="1" opacity="1" d="M 177.5 53 Q 180.1 52.2 179 55.5 L 180 59.5 L 179 59.5 L 177.5 53 Z " /><path fill="rgb(255,255,255)" stroke="rgb(255,255,255)" stroke-width="1" opacity="1" d="M 194 53 L 196 53.5 L 194.5 56 L 194 53 Z " /><path fill="rgb(255,255,255)" stroke="rgb(255,255,255)" stroke-width="1" opacity="1" d="M 154 54 L 157 54.5 L 154 56.5 L 154 54 Z " /><path fill="rgb(255,255,255)" stroke="rgb(255,255,255)" stroke-width="1" opacity="1" d="M 187.5 54 L 190 54.5 L 187.5 55 L 187.5 54 Z " /><path fill="rgb(255,255,255)" stroke="rgb(255,255,255)" stroke-width="1" opacity="1" d="M 228 54 L 231 54.5 L 228 56 L 228 54 Z " /><path fill="rgb(255,255,255)" stroke="rgb(255,255,255)" stroke-width="1" opacity="1" d="M 276.5 56 L 279 57.5 L 278.5 59 L 278 57 L 276.5 56 Z " /><path fill="rgb(255,255,255)" stroke="rgb(255,255,255)" stroke-width="1" opacity="1" d="M 36.5 57 L 38 57.5 L 36 58 L 35.5 60 L 33 59 L 32.5 61 L 32 59.5 L 36.5 57 Z " /><path fill="rgb(255,255,255)" stroke="rgb(255,255,255)" stroke-width="1" opacity="1" d="M 62.5 57 Q 64.8 56.3 64 58.5 L 66 58.5 Q 64.8 61.3 63.5 59 L 61 58.5 L 62.5 57 Z " /><path fill="rgb(255,255,255)" stroke="rgb(255,255,255)" stroke-width="1" opacity="1" d="M 86.5 58 L 87 59.5 L 86 61.5 L 86.5 63 L 85 59.5 L 86.5 58 Z " /><path fill="rgb(255,255,255)" stroke="rgb(255,255,255)" stroke-width="1" opacity="1" d="M 191.5 58 L 190.5 60 L 189 59.5 L 191.5 58 Z " /><path fill="rgb(255,255,255)" stroke="rgb(255,255,255)" stroke-width="1" opacity="1" d="M 167.5 59 L 165.5 62 L 165 60 L 167.5 59 Z " /><path fill="rgb(255,255,255)" stroke="rgb(255,255,255)" stroke-width="1" opacity="1" d="M 58.5 60 L 60 63.5 L 58.5 64 Q 55.8 62.8 58 61.5 L 58.5 60 Z " /><path fill="rgb(255,255,255)" stroke="rgb(255,255,255)" stroke-width="1" opacity="1" d="M 127.5 61 L 134 61.5 L 127.5 62 L 127.5 61 Z " /><path fill="rgb(255,255,255)" stroke="rgb(255,255,255)" stroke-width="1" opacity="1" d="M 100.5 63 L 102 63.5 L 100 64 L 99.5 72 L 99 64.5 L 100.5 63 Z " /><path fill="rgb(255,255,255)" stroke="rgb(255,255,255)" stroke-width="1" opacity="1" d="M 143.5 63 Q 146.3 64.3 144 65.5 L 143.5 68 L 143.5 63 Z " /><path fill="rgb(255,255,255)" stroke="rgb(255,255,255)" stroke-width="1" opacity="1" d="M 112.5 64 L 113 72 L 115 71.5 L 115 64.5 L 116 64.5 Q 117.8 71.3 114.5 73 L 112.5 72 L 112 73.5 L 113.5 76 L 110.5 77 L 110.5 76 Q 112.8 76.8 112 74.5 L 111 72.5 L 112.5 64 Z " /><path fill="rgb(255,255,255)" stroke="rgb(255,255,255)" stroke-width="1" opacity="1" d="M 153 64 L 156 64.5 L 153.5 66 L 153 64 Z " /><path fill="rgb(255,255,255)" stroke="rgb(255,255,255)" stroke-width="1" opacity="1" d="M 179.5 64 L 181 75.5 L 180 75.5 L 179.5 64 Z " /><path fill="rgb(255,255,255)" stroke="rgb(255,255,255)" stroke-width="1" opacity="1" d="M 183.5 64 L 184 71.5 L 182.5 76 L 182 72.5 L 183.5 64 Z " /><path fill="rgb(255,255,255)" stroke="rgb(255,255,255)" stroke-width="1" opacity="1" d="M 203.5 64 L 204 71.5 L 203 71.5 L 203.5 64 Z " /><path fill="rgb(255,255,255)" stroke="rgb(255,255,255)" stroke-width="1" opacity="1" d="M 265.5 64 L 266 71.5 L 265 71.5 L 265.5 64 Z " /><path fill="rgb(255,255,255)" stroke="rgb(255,255,255)" stroke-width="1" opacity="1" d="M 150.5 67 L 152 67.5 L 147.5 70 L 148.5 68 L 150.5 67 Z " /><path fill="rgb(255,255,255)" stroke="rgb(255,255,255)" stroke-width="1" opacity="1" d="M 44.5 68 Q 46.8 67.3 46 69.5 L 47 73 Q 50 72 49 75 Q 46.3 76.1 47 73.5 L 45 71.5 L 46 70.5 L 44.5 68 Z " /><path fill="rgb(255,255,255)" stroke="rgb(255,255,255)" stroke-width="1" opacity="1" d="M 132.5 68 L 133 70 L 128 69.5 L 132.5 68 Z " /><path fill="rgb(255,255,255)" stroke="rgb(255,255,255)" stroke-width="1" opacity="1" d="M 76.5 70 Q 78.8 69.3 78 71.5 L 79 77 Q 76.3 78.1 77 75.5 L 78 72.5 L 76.5 70 Z " /><path fill="rgb(255,255,255)" stroke="rgb(255,255,255)" stroke-width="1" opacity="1" d="M 197.5 70 L 198 72 L 196 71.5 L 197.5 70 Z " /><path fill="rgb(255,255,255)" stroke="rgb(255,255,255)" stroke-width="1" opacity="1" d="M 74 72 L 76 72.5 L 75 75 L 73 74.5 L 74 72 Z " /><path fill="rgb(255,255,255)" stroke="rgb(255,255,255)" stroke-width="1" opacity="1" d="M 196.5 73 L 199 73.5 L 196.5 74 L 196.5 73 Z " /><path fill="rgb(255,255,255)" stroke="rgb(255,255,255)" stroke-width="1" opacity="1" d="M 44.5 74 L 46 74.5 L 43.5 76 L 44.5 74 Z " /><path fill="rgb(255,255,255)" stroke="rgb(255,255,255)" stroke-width="1" opacity="1" d="M 135.5 74 L 138.5 75 Q 140.8 74.3 140 76.5 L 139.5 79 Q 137.3 79.8 138 77.5 L 138.5 76 L 135.5 77 L 135.5 74 Z " /><path fill="rgb(255,255,255)" stroke="rgb(255,255,255)" stroke-width="1" opacity="1" d="M 154.5 74 L 154 75.5 L 153.5 77 L 153 75.5 L 154.5 74 Z " /><path fill="rgb(255,255,255)" stroke="rgb(255,255,255)" stroke-width="1" opacity="1" d="M 195.5 75 L 196 76.5 L 193 78.5 L 195.5 75 Z " /><path fill="rgb(255,255,255)" stroke="rgb(255,255,255)" stroke-width="1" opacity="1" d="M 186.5 76 Q 188.8 75.3 188 77.5 L 186 78.5 L 186.5 76 Z " /><path fill="rgb(255,255,255)" stroke="rgb(255,255,255)" stroke-width="1" opacity="1" d="M 202.5 76 Q 205.1 75.3 204 78 L 201 77.5 L 202.5 76 Z " /><path fill="rgb(255,255,255)" stroke="rgb(255,255,255)" stroke-width="1" opacity="1" d="M 256 76 L 258 76.5 L 257.5 79 L 256 76 Z " /><path fill="rgb(255,255,255)" stroke="rgb(255,255,255)" stroke-width="1" opacity="1" d="M 260.5 76 L 263 77.5 Q 263.7 80.1 261 79 L 260.5 76 Z " /><path fill="rgb(255,255,255)" stroke="rgb(255,255,255)" stroke-width="1" opacity="1" d="M 98 77 Q 101 76 100 79 Q 97 80 98 77 Z " /><path fill="rgb(255,255,255)" stroke="rgb(255,255,255)" stroke-width="1" opacity="1" d="M 117.5 77 L 125 77.5 L 117.5 78 L 117.5 77 Z " /><path fill="rgb(255,255,255)" stroke="rgb(255,255,255)" stroke-width="1" opacity="1" d="M 129.5 77 L 132 77.5 L 129.5 78 L 129.5 77 Z " /><path fill="rgb(255,255,255)" stroke="rgb(255,255,255)" stroke-width="1" opacity="1" d="M 142.5 77 L 145 77.5 L 142.5 78 L 142.5 77 Z " /><path fill="rgb(255,255,255)" stroke="rgb(255,255,255)" stroke-width="1" opacity="1" d="M 24 79 L 44.5 80 L 46.5 80 Q 49.5 79.1 48 83.5 L 48 85.5 L 47.5 88 L 28.5 88 L 28 91 L 26.5 91 L 27 89.5 L 27 88 L 24 87.5 L 24 79 Z " /><path fill="rgb(255,255,255)" stroke="rgb(255,255,255)" stroke-width="1" opacity="1" d="M 69.5 82 L 70 86 L 68 85.5 L 69.5 82 Z " /><path fill="rgb(255,255,255)" stroke="rgb(255,255,255)" stroke-width="1" opacity="1" d="M 33.5 91 L 36 91.5 L 33.5 92 L 33.5 91 Z " /><path fill="rgb(194,230,216)" stroke="rgb(194,230,216)" stroke-width="1" opacity="1" d="M 6.5 36 L 9 37.5 L 7.5 38 L 6 37.5 L 5.5 39 L 5 37.5 L 6.5 36 Z " /><path fill="rgb(194,230,216)" stroke="rgb(194,230,216)" stroke-width="1" opacity="1" d="M 12.5 39 L 13.5 41 L 12.5 39 Z " /><path fill="rgb(194,230,216)" stroke="rgb(194,230,216)" stroke-width="1" opacity="1" d="M 6.5 41 L 7 44.5 L 6 44.5 L 6.5 41 Z " /><path fill="rgb(194,230,216)" stroke="rgb(194,230,216)" stroke-width="1" opacity="1" d="M 15.5 41 L 21 49.5 L 20 49.5 L 15.5 41 Z " /><path fill="rgb(194,230,216)" stroke="rgb(194,230,216)" stroke-width="1" opacity="1" d="M 7.5 48 L 8 55.5 L 7 55.5 L 7.5 48 Z " /><path fill="rgb(194,230,216)" stroke="rgb(194,230,216)" stroke-width="1" opacity="1" d="M 21.5 51 L 22 53.5 L 21 53.5 L 21.5 51 Z " /><path fill="rgb(194,230,216)" stroke="rgb(194,230,216)" stroke-width="1" opacity="1" d="M 145.5 54 L 148 54.5 L 145.5 55 L 145.5 54 Z " /><path fill="rgb(194,230,216)" stroke="rgb(194,230,216)" stroke-width="1" opacity="1" d="M 96 55 L 99 55.5 L 97 56 L 97 60 L 102.5 60 L 103 60.5 L 103 75.5 L 103.5 77 L 102 75.5 L 102 61 Q 97.4 62.3 96 59.5 L 96 55 Z " /><path fill="rgb(194,230,216)" stroke="rgb(194,230,216)" stroke-width="1" opacity="1" d="M 102.5 55 L 113 55.5 L 102.5 56 L 102.5 55 Z " /><path fill="rgb(194,230,216)" stroke="rgb(194,230,216)" stroke-width="1" opacity="1" d="M 114.5 55 L 115 61 L 109 61 L 109 75.5 L 108 75.5 L 108 61.5 L 109.5 60 L 114 60 L 114.5 55 Z " /><path fill="rgb(194,230,216)" stroke="rgb(194,230,216)" stroke-width="1" opacity="1" d="M 132.5 55 Q 135.9 54.1 134 59.5 L 132.5 61 L 123.5 61 L 123.5 60 L 133 60 L 133 56.5 L 132.5 55 Z " /><path fill="rgb(194,230,216)" stroke="rgb(194,230,216)" stroke-width="1" opacity="1" d="M 149.5 55 L 155 57 L 155 61 L 153.5 61 L 150.5 63 Q 149.5 60 144.5 61 L 142 62.5 Q 143 59 148.5 60 L 151.5 62 L 154 58.5 Q 153.5 55.5 149.5 56 L 149.5 55 Z " /><path fill="rgb(194,230,216)" stroke="rgb(194,230,216)" stroke-width="1" opacity="1" d="M 157 55 L 159 55.5 L 158 56.5 L 158 75.5 L 158.5 77 L 157 75.5 L 157 55 Z " /><path fill="rgb(194,230,216)" stroke="rgb(194,230,216)" stroke-width="1" opacity="1" d="M 163.5 55 L 164 62 L 170 62 L 170 55.5 L 171.5 55 L 171 56.5 L 171 63 L 163 63 L 163.5 55 Z " /><path fill="rgb(194,230,216)" stroke="rgb(194,230,216)" stroke-width="1" opacity="1" d="M 176.5 55 L 177 75.5 L 176 75.5 L 176.5 55 Z " /><path fill="rgb(194,230,216)" stroke="rgb(194,230,216)" stroke-width="1" opacity="1" d="M 140.5 56 L 137.5 60 L 140.5 56 Z " /><path fill="rgb(194,230,216)" stroke="rgb(194,230,216)" stroke-width="1" opacity="1" d="M 22.5 57 L 23 60 L 28 60.5 L 22 61 L 22.5 57 Z " /><path fill="rgb(194,230,216)" stroke="rgb(194,230,216)" stroke-width="1" opacity="1" d="M 30.5 61 L 34 62.5 L 32.5 62 Q 29.5 62.5 30.5 61 Z " /><path fill="rgb(194,230,216)" stroke="rgb(194,230,216)" stroke-width="1" opacity="1" d="M 132.5 63 L 133 67.5 L 132 67.5 L 132.5 63 Z " /><path fill="rgb(194,230,216)" stroke="rgb(194,230,216)" stroke-width="1" opacity="1" d="M 36.5 64 L 39.5 68 L 36.5 64 Z " /><path fill="rgb(194,230,216)" stroke="rgb(194,230,216)" stroke-width="1" opacity="1" d="M 135.5 64 L 136 67.5 L 135 67.5 L 135.5 64 Z " /><path fill="rgb(194,230,216)" stroke="rgb(194,230,216)" stroke-width="1" opacity="1" d="M 141.5 64 Q 141.3 68.7 144.5 70 L 146 70.5 L 144.5 71 Q 139.6 69.6 141.5 64 Z " /><path fill="rgb(194,230,216)" stroke="rgb(194,230,216)" stroke-width="1" opacity="1" d="M 127.5 67 L 130 67.5 L 127.5 68 L 127.5 67 Z " /><path fill="rgb(194,230,216)" stroke="rgb(194,230,216)" stroke-width="1" opacity="1" d="M 151.5 68 L 156 71.5 L 155 74 L 150.5 76 L 150.5 75 L 155 71.5 L 151.5 69 L 148.5 71 L 149.5 69 L 151.5 68 Z " /><path fill="rgb(194,230,216)" stroke="rgb(194,230,216)" stroke-width="1" opacity="1" d="M 163 68 L 165 68.5 Q 162.5 70 164 75.5 L 162.5 77 L 160 76.5 L 163 76 L 163 68 Z " /><path fill="rgb(194,230,216)" stroke="rgb(194,230,216)" stroke-width="1" opacity="1" d="M 169.5 68 L 171 68.5 L 171 75.5 L 170 75.5 Q 170.5 69.5 169.5 68 Z " /><path fill="rgb(194,230,216)" stroke="rgb(194,230,216)" stroke-width="1" opacity="1" d="M 40.5 69 L 43 72.5 L 41 71.5 L 40.5 69 Z " /><path fill="rgb(194,230,216)" stroke="rgb(194,230,216)" stroke-width="1" opacity="1" d="M 122.5 69 L 123.5 71 L 122.5 69 Z " /><path fill="rgb(194,230,216)" stroke="rgb(194,230,216)" stroke-width="1" opacity="1" d="M 136.5 69 L 138 71.5 L 136 70.5 L 136.5 69 Z " /><path fill="rgb(194,230,216)" stroke="rgb(194,230,216)" stroke-width="1" opacity="1" d="M 138.5 73 Q 141.7 76.8 149 76.5 L 143.5 77 Q 138.9 75.8 138.5 73 Z " /><path fill="rgb(194,230,216)" stroke="rgb(194,230,216)" stroke-width="1" opacity="1" d="M 22 75 L 24 75.5 L 22.5 83 L 22 75 Z " /><path fill="rgb(194,230,216)" stroke="rgb(194,230,216)" stroke-width="1" opacity="1" d="M 117.5 75 L 120 76.5 L 118.5 77 L 117.5 75 Z " /><path fill="rgb(194,230,216)" stroke="rgb(194,230,216)" stroke-width="1" opacity="1" d="M 7.5 79 L 8 84.5 L 7 84.5 L 7.5 79 Z " /><path fill="rgb(194,230,216)" stroke="rgb(194,230,216)" stroke-width="1" opacity="1" d="M 24.5 89 L 26 91.5 L 25 91.5 L 24.5 89 Z " /><path fill="rgb(194,230,216)" stroke="rgb(194,230,216)" stroke-width="1" opacity="1" d="M 9.5 92 L 13 97.5 L 10 95.5 L 9.5 92 Z " /><path fill="rgb(194,230,216)" stroke="rgb(194,230,216)" stroke-width="1" opacity="1" d="M 27.5 92 L 28.5 94 L 27.5 92 Z " /><path fill="rgb(42,161,133)" stroke="rgb(42,161,133)" stroke-width="1" opacity="1" d="M 6.5 37 L 17 43.5 Q 22.7 49.5 22 61 Q 35.4 59.8 40 68.5 L 43 75 L 22 75 L 22 82.5 L 23 85.5 L 22 88 L 14 94.5 Q 14.7 97.5 11 96 L 8 87.5 L 8 48.5 L 7 47.5 L 6.5 37 Z " /><path fill="rgb(42,161,133)" stroke="rgb(42,161,133)" stroke-width="1" opacity="1" d="M 99.5 55 Q 104.2 57.3 112.5 56 L 114 55.5 Q 116.3 62.3 109.5 60 L 108 61.5 L 108 76 L 103 76 L 103 60.5 L 102.5 60 L 97 60 L 97 56 L 99.5 55 Z " /><path fill="rgb(42,161,133)" stroke="rgb(42,161,133)" stroke-width="1" opacity="1" d="M 118.5 55 L 120.5 55 L 129.5 56 L 131.5 55 Q 134 56.2 133 60 L 123.5 60 L 123 63 L 132 63 L 132 68 L 127.5 67 L 125.5 68 Q 123.7 65.3 122 69.5 L 123.5 71 L 132.5 71 L 134 72.5 L 132.5 76 L 118.5 76 L 117 74.5 L 117 56.5 L 118.5 55 Z " /><path fill="rgb(42,161,133)" stroke="rgb(42,161,133)" stroke-width="1" opacity="1" d="M 144.5 55 Q 151.7 54.3 154 58.5 L 151.5 62 Q 149.8 59.2 144.5 60 Q 140.3 61.3 141 67.5 Q 142 72 148.5 71 L 151.5 69 L 155 71.5 Q 152.8 77.3 143.5 76 L 138 72.5 Q 135 69.5 136 62.5 L 141.5 56 L 144.5 55 Z " /><path fill="rgb(42,161,133)" stroke="rgb(42,161,133)" stroke-width="1" opacity="1" d="M 159.5 55 L 161.5 55 L 163 55.5 L 163 63 L 171 63 Q 169.3 56.9 172.5 55 L 176 55.5 L 176 76 L 171 76 L 171 68 L 163 68 L 163 76 L 158 76 L 158 56.5 L 159.5 55 Z " /><path fill="rgb(245,249,246)" stroke="rgb(245,249,246)" stroke-width="1" opacity="1" d="M 4.5 32 L 8 32.5 L 4.5 33 L 4.5 32 Z " /><path fill="rgb(245,249,246)" stroke="rgb(245,249,246)" stroke-width="1" opacity="1" d="M 0.5 33 L 5 34 L 6 36.5 L 4.5 36 L 0 39.5 L 1 37 Q 3.7 38.1 3 35.5 L 0.5 33 Z " /><path fill="rgb(245,249,246)" stroke="rgb(245,249,246)" stroke-width="1" opacity="1" d="M 13.5 37 L 16 37.5 L 13.5 38 L 13.5 37 Z " /><path fill="rgb(245,249,246)" stroke="rgb(245,249,246)" stroke-width="1" opacity="1" d="M 13.5 39 L 14.5 41 L 13.5 39 Z " /><path fill="rgb(245,249,246)" stroke="rgb(245,249,246)" stroke-width="1" opacity="1" d="M 23.5 40 L 24 42.5 L 23 42.5 L 23.5 40 Z " /><path fill="rgb(245,249,246)" stroke="rgb(245,249,246)" stroke-width="1" opacity="1" d="M 18.5 41 Q 21.1 40.3 20 43 L 22 43 L 22 45.5 L 21 45.5 L 18.5 41 Z " /><path fill="rgb(245,249,246)" stroke="rgb(245,249,246)" stroke-width="1" opacity="1" d="M 2.5 46 L 3 47.5 L 1 48.5 L 2.5 46 Z " /><path fill="rgb(245,249,246)" stroke="rgb(245,249,246)" stroke-width="1" opacity="1" d="M 75.5 48 L 78 48.5 L 75.5 49 L 75.5 48 Z " /><path fill="rgb(245,249,246)" stroke="rgb(245,249,246)" stroke-width="1" opacity="1" d="M 112.5 48 L 115 48.5 L 112.5 49 L 112.5 48 Z " /><path fill="rgb(245,249,246)" stroke="rgb(245,249,246)" stroke-width="1" opacity="1" d="M 117.5 48 L 120 48.5 L 117.5 49 L 117.5 48 Z " /><path fill="rgb(245,249,246)" stroke="rgb(245,249,246)" stroke-width="1" opacity="1" d="M 253.5 48 L 257 48.5 L 253.5 49 L 253.5 48 Z " /><path fill="rgb(245,249,246)" stroke="rgb(245,249,246)" stroke-width="1" opacity="1" d="M 152.5 49 L 158 50.5 L 155.5 51 L 152.5 50 L 150.5 51 L 150.5 50 L 152.5 49 Z " /><path fill="rgb(245,249,246)" stroke="rgb(245,249,246)" stroke-width="1" opacity="1" d="M 205.5 49 Q 207.8 48.3 207 50.5 L 205.5 49 Z " /><path fill="rgb(245,249,246)" stroke="rgb(245,249,246)" stroke-width="1" opacity="1" d="M 173.5 50 L 176 50.5 L 173.5 51 L 173.5 50 Z " /><path fill="rgb(245,249,246)" stroke="rgb(245,249,246)" stroke-width="1" opacity="1" d="M 193.5 50 L 196 51.5 L 195.5 53 L 193.5 50 Z " /><path fill="rgb(245,249,246)" stroke="rgb(245,249,246)" stroke-width="1" opacity="1" d="M 238.5 50 L 240 50.5 L 237.5 52 L 238.5 50 Z " /><path fill="rgb(245,249,246)" stroke="rgb(245,249,246)" stroke-width="1" opacity="1" d="M 248 50 L 250 50.5 L 248 51.5 L 248 50 Z " /><path fill="rgb(245,249,246)" stroke="rgb(245,249,246)" stroke-width="1" opacity="1" d="M 254 50 Q 256.7 48.9 256 51.5 L 263 55.5 L 261.5 55 L 254 53.5 L 256 52.5 L 254 52 L 254 50 Z " /><path fill="rgb(245,249,246)" stroke="rgb(245,249,246)" stroke-width="1" opacity="1" d="M 269.5 50 L 272 50.5 L 269.5 51 L 269.5 50 Z " /><path fill="rgb(245,249,246)" stroke="rgb(245,249,246)" stroke-width="1" opacity="1" d="M 282.5 50 Q 284.8 49.3 284 51.5 L 284.5 53 L 281.5 54 L 282.5 50 Z " /><path fill="rgb(245,249,246)" stroke="rgb(245,249,246)" stroke-width="1" opacity="1" d="M 286 50 Q 289 49 288 52 Q 285 53 286 50 Z " /><path fill="rgb(245,249,246)" stroke="rgb(245,249,246)" stroke-width="1" opacity="1" d="M 23.5 51 L 24 53.5 L 22.5 56 L 22 54.5 L 23.5 51 Z " /><path fill="rgb(245,249,246)" stroke="rgb(245,249,246)" stroke-width="1" opacity="1" d="M 199.5 51 L 203 52.5 L 200.5 53 L 199.5 51 Z " /><path fill="rgb(245,249,246)" stroke="rgb(245,249,246)" stroke-width="1" opacity="1" d="M 265.5 51 L 270 52.5 L 266.5 53 L 265.5 51 Z " /><path fill="rgb(245,249,246)" stroke="rgb(245,249,246)" stroke-width="1" opacity="1" d="M 72.5 52 L 79.5 52 L 80 54 L 81.5 54 L 82.5 56 Q 79.9 52.1 72.5 53 L 72.5 52 Z " /><path fill="rgb(245,249,246)" stroke="rgb(245,249,246)" stroke-width="1" opacity="1" d="M 96 52 Q 99.7 50.5 99 53.5 L 99.5 55 L 96 54 L 96 52 Z " /><path fill="rgb(245,249,246)" stroke="rgb(245,249,246)" stroke-width="1" opacity="1" d="M 112.5 52 L 115 52.5 L 112.5 53 L 112.5 52 Z " /><path fill="rgb(245,249,246)" stroke="rgb(245,249,246)" stroke-width="1" opacity="1" d="M 117.5 52 L 120 52.5 L 117.5 53 L 117.5 52 Z " /><path fill="rgb(245,249,246)" stroke="rgb(245,249,246)" stroke-width="1" opacity="1" d="M 137 52 L 140 53.5 L 137 54 L 137 52 Z " /><path fill="rgb(245,249,246)" stroke="rgb(245,249,246)" stroke-width="1" opacity="1" d="M 143.5 52 L 146 52.5 L 143.5 53 L 143.5 52 Z " /><path fill="rgb(245,249,246)" stroke="rgb(245,249,246)" stroke-width="1" opacity="1" d="M 134.5 53 L 134.5 56 L 129 54.5 L 134.5 53 Z " /><path fill="rgb(245,249,246)" stroke="rgb(245,249,246)" stroke-width="1" opacity="1" d="M 167.5 53 L 168 55 L 166 54.5 L 167.5 53 Z " /><path fill="rgb(245,249,246)" stroke="rgb(245,249,246)" stroke-width="1" opacity="1" d="M 212.5 53 L 215 53.5 L 212.5 54 L 212.5 53 Z " /><path fill="rgb(245,249,246)" stroke="rgb(245,249,246)" stroke-width="1" opacity="1" d="M 152.5 54 L 154 56.5 L 152 55.5 L 152.5 54 Z " /><path fill="rgb(245,249,246)" stroke="rgb(245,249,246)" stroke-width="1" opacity="1" d="M 158.5 54 Q 163.8 52.8 165 55.5 L 164.5 57 L 164 55 L 158.5 55 L 158.5 54 Z " /><path fill="rgb(245,249,246)" stroke="rgb(245,249,246)" stroke-width="1" opacity="1" d="M 170.5 54 Q 176.5 52.5 178 55.5 L 179 58.5 L 178 63.5 L 179 64.5 L 179 73.5 L 176.5 78 L 171 76.5 L 177 76 L 177 55.5 Q 176.8 54.3 170.5 55 L 169 55.5 L 170.5 54 Z " /><path fill="rgb(245,249,246)" stroke="rgb(245,249,246)" stroke-width="1" opacity="1" d="M 192.5 54 L 193 56 L 189.5 58 L 189 56 L 192.5 54 Z " /><path fill="rgb(245,249,246)" stroke="rgb(245,249,246)" stroke-width="1" opacity="1" d="M 272 54 L 274 54 Q 272.9 56.7 275.5 56 Q 280.3 58.5 278.5 61 L 280 61.5 L 278.5 62 L 275.5 57 L 272 56 L 272 54 Z " /><path fill="rgb(245,249,246)" stroke="rgb(245,249,246)" stroke-width="1" opacity="1" d="M 6 56 L 8 56.5 L 8 63.5 L 7 63.5 L 6 56 Z " /><path fill="rgb(245,249,246)" stroke="rgb(245,249,246)" stroke-width="1" opacity="1" d="M 57.5 56 L 59 56.5 L 57 57 L 56.5 59 L 56 57.5 L 57.5 56 Z " /><path fill="rgb(245,249,246)" stroke="rgb(245,249,246)" stroke-width="1" opacity="1" d="M 62.5 56 L 65 56.5 L 62.5 57 L 62.5 56 Z " /><path fill="rgb(245,249,246)" stroke="rgb(245,249,246)" stroke-width="1" opacity="1" d="M 86.5 56 Q 89.1 55.3 88 58 L 83 60 L 82.5 62 L 82 60.5 L 85 59 L 86.5 56 Z " /><path fill="rgb(245,249,246)" stroke="rgb(245,249,246)" stroke-width="1" opacity="1" d="M 116.5 56 L 117 63.5 L 116 63.5 L 115 59.5 L 116.5 56 Z " /><path fill="rgb(245,249,246)" stroke="rgb(245,249,246)" stroke-width="1" opacity="1" d="M 137.5 56 L 140 56.5 Q 137.9 59.8 137.5 56 Z " /><path fill="rgb(245,249,246)" stroke="rgb(245,249,246)" stroke-width="1" opacity="1" d="M 167.5 56 L 169 59 L 165 59 L 165 60.5 L 164 60.5 Q 162.7 56.3 167.5 58 L 167.5 56 Z " /><path fill="rgb(245,249,246)" stroke="rgb(245,249,246)" stroke-width="1" opacity="1" d="M 243.5 56 L 245 56.5 L 243 57 Q 244 60 241 59 Q 239.9 56.3 242.5 57 L 243.5 56 Z " /><path fill="rgb(245,249,246)" stroke="rgb(245,249,246)" stroke-width="1" opacity="1" d="M 286.5 56 L 287 63.5 L 286 63.5 L 286.5 56 Z " /><path fill="rgb(245,249,246)" stroke="rgb(245,249,246)" stroke-width="1" opacity="1" d="M 155.5 57 L 156 60.5 L 155 60.5 L 155.5 57 Z " /><path fill="rgb(245,249,246)" stroke="rgb(245,249,246)" stroke-width="1" opacity="1" d="M 262.5 57 L 264 60.5 L 263 60.5 L 262.5 57 Z " /><path fill="rgb(245,249,246)" stroke="rgb(245,249,246)" stroke-width="1" opacity="1" d="M 26.5 58 L 29 58.5 L 26.5 59 L 26.5 58 Z " /><path fill="rgb(245,249,246)" stroke="rgb(245,249,246)" stroke-width="1" opacity="1" d="M 37.5 59 L 37 60.5 L 36.5 62 L 34 60.5 L 37.5 59 Z " /><path fill="rgb(245,249,246)" stroke="rgb(245,249,246)" stroke-width="1" opacity="1" d="M 134.5 59 L 133.5 61 L 134.5 59 Z " /><path fill="rgb(245,249,246)" stroke="rgb(245,249,246)" stroke-width="1" opacity="1" d="M 56.5 60 L 57 64 Q 59.7 62.9 59 65.5 L 56 63.5 L 56.5 60 Z " /><path fill="rgb(245,249,246)" stroke="rgb(245,249,246)" stroke-width="1" opacity="1" d="M 61 60 L 63 60.5 L 61 61.5 L 61 60 Z " /><path fill="rgb(245,249,246)" stroke="rgb(245,249,246)" stroke-width="1" opacity="1" d="M 148.5 61 L 149.5 63 L 148.5 61 Z " /><path fill="rgb(245,249,246)" stroke="rgb(245,249,246)" stroke-width="1" opacity="1" d="M 153.5 61 L 154.5 63 L 153 62.5 L 152.5 64 L 152 62.5 L 153.5 61 Z " /><path fill="rgb(245,249,246)" stroke="rgb(245,249,246)" stroke-width="1" opacity="1" d="M 225.5 61 L 226.5 63 L 225.5 61 Z " /><path fill="rgb(245,249,246)" stroke="rgb(245,249,246)" stroke-width="1" opacity="1" d="M 34.5 62 L 35.5 64 L 34.5 62 Z " /><path fill="rgb(245,249,246)" stroke="rgb(245,249,246)" stroke-width="1" opacity="1" d="M 135.5 62 L 136 63.5 L 135 66 L 133 65.5 L 133.5 63 L 135 63.5 L 135.5 62 Z " /><path fill="rgb(245,249,246)" stroke="rgb(245,249,246)" stroke-width="1" opacity="1" d="M 143.5 62 L 148 64.5 L 146.5 65 L 143.5 63 L 142 63.5 L 143.5 62 Z " /><path fill="rgb(245,249,246)" stroke="rgb(245,249,246)" stroke-width="1" opacity="1" d="M 251 62 L 253 62.5 L 251 63.5 L 251 62 Z " /><path fill="rgb(245,249,246)" stroke="rgb(245,249,246)" stroke-width="1" opacity="1" d="M 79.5 63 L 83 63.5 L 78.5 66 L 78 64.5 L 79.5 63 Z " /><path fill="rgb(245,249,246)" stroke="rgb(245,249,246)" stroke-width="1" opacity="1" d="M 248.5 63 L 249 65 L 252 65.5 L 250 66.5 L 253 68.5 L 252.5 70 Q 251.4 67.3 248 68 L 249 65.5 L 248.5 63 Z " /><path fill="rgb(245,249,246)" stroke="rgb(245,249,246)" stroke-width="1" opacity="1" d="M 255 63 L 257 63.5 L 255 64.5 L 255 63 Z " /><path fill="rgb(245,249,246)" stroke="rgb(245,249,246)" stroke-width="1" opacity="1" d="M 44.5 64 L 46 64.5 L 44 65 L 43.5 67 L 42.5 65 L 44.5 64 Z " /><path fill="rgb(245,249,246)" stroke="rgb(245,249,246)" stroke-width="1" opacity="1" d="M 150.5 65 L 153 66.5 L 150 67 L 150.5 65 Z " /><path fill="rgb(245,249,246)" stroke="rgb(245,249,246)" stroke-width="1" opacity="1" d="M 57.5 67 L 58 69.5 L 57 69.5 L 57.5 67 Z " /><path fill="rgb(245,249,246)" stroke="rgb(245,249,246)" stroke-width="1" opacity="1" d="M 154.5 67 L 155.5 69 L 154.5 67 Z " /><path fill="rgb(245,249,246)" stroke="rgb(245,249,246)" stroke-width="1" opacity="1" d="M 76.5 68 L 79 68.5 L 76 69 L 74.5 72 L 75 70.5 L 76.5 68 Z " /><path fill="rgb(245,249,246)" stroke="rgb(245,249,246)" stroke-width="1" opacity="1" d="M 128.5 68 L 131 68.5 L 128.5 69 L 128.5 68 Z " /><path fill="rgb(245,249,246)" stroke="rgb(245,249,246)" stroke-width="1" opacity="1" d="M 152.5 68 L 153.5 70 L 152.5 68 Z " /><path fill="rgb(245,249,246)" stroke="rgb(245,249,246)" stroke-width="1" opacity="1" d="M 165.5 68 Q 169.3 67.3 170 69.5 L 166.5 69 Q 163.5 68.5 165 75.5 L 164.5 77 L 167 77.5 L 165 78 L 164.5 80 L 163 76.5 Q 165.5 75 164 69.5 L 165.5 68 Z " /><path fill="rgb(245,249,246)" stroke="rgb(245,249,246)" stroke-width="1" opacity="1" d="M 43.5 69 Q 45.8 68.3 45 70.5 L 43.5 69 Z " /><path fill="rgb(245,249,246)" stroke="rgb(245,249,246)" stroke-width="1" opacity="1" d="M 133.5 69 L 135 71.5 L 133.5 71 L 131 70.5 L 133.5 69 Z " /><path fill="rgb(245,249,246)" stroke="rgb(245,249,246)" stroke-width="1" opacity="1" d="M 79.5 70 L 80 72.5 L 79 72.5 L 79.5 70 Z " /><path fill="rgb(245,249,246)" stroke="rgb(245,249,246)" stroke-width="1" opacity="1" d="M 124.5 70 L 128 70.5 L 124.5 71 L 124.5 70 Z " /><path fill="rgb(245,249,246)" stroke="rgb(245,249,246)" stroke-width="1" opacity="1" d="M 262.5 71 L 265 72.5 L 263 73 Q 261.9 75.7 264.5 75 L 264.5 76 L 261.5 75 L 260 75.5 L 261.5 73 L 263 72.5 L 262.5 71 Z " /><path fill="rgb(245,249,246)" stroke="rgb(245,249,246)" stroke-width="1" opacity="1" d="M 276.5 71 Q 279 72.2 278 76 L 276 75.5 L 277 72.5 L 276.5 71 Z " /><path fill="rgb(245,249,246)" stroke="rgb(245,249,246)" stroke-width="1" opacity="1" d="M 4.5 72 L 5 74.5 L 4 74.5 L 4.5 72 Z " /><path fill="rgb(245,249,246)" stroke="rgb(245,249,246)" stroke-width="1" opacity="1" d="M 7.5 72 L 8 78.5 Q 5.8 79.7 7 84.5 L 8 87.5 L 7 87.5 L 6 79.5 L 7.5 72 Z " /><path fill="rgb(245,249,246)" stroke="rgb(245,249,246)" stroke-width="1" opacity="1" d="M 76.5 72 L 77 75 L 75 74.5 L 76.5 72 Z " /><path fill="rgb(245,249,246)" stroke="rgb(245,249,246)" stroke-width="1" opacity="1" d="M 137.5 72 L 136.5 74 L 137.5 72 Z " /><path fill="rgb(245,249,246)" stroke="rgb(245,249,246)" stroke-width="1" opacity="1" d="M 155.5 72 L 156.5 74 L 155.5 72 Z " /><path fill="rgb(245,249,246)" stroke="rgb(245,249,246)" stroke-width="1" opacity="1" d="M 241.5 72 L 242.5 74 Q 239.7 74.7 241.5 72 Z " /><path fill="rgb(245,249,246)" stroke="rgb(245,249,246)" stroke-width="1" opacity="1" d="M 169.5 73 L 170 75.5 L 169 75.5 L 169.5 73 Z " /><path fill="rgb(245,249,246)" stroke="rgb(245,249,246)" stroke-width="1" opacity="1" d="M 116.5 74 L 118 76.5 L 116 75.5 L 116.5 74 Z " /><path fill="rgb(245,249,246)" stroke="rgb(245,249,246)" stroke-width="1" opacity="1" d="M 153.5 74 L 158 76.5 L 156.5 79 L 156 77.5 L 156.5 76 L 153.5 75 L 152 75.5 L 153.5 74 Z " /><path fill="rgb(245,249,246)" stroke="rgb(245,249,246)" stroke-width="1" opacity="1" d="M 24.5 75 Q 31.2 73.3 33 76.5 L 31.5 76 L 24.5 76 L 24.5 75 Z " /><path fill="rgb(245,249,246)" stroke="rgb(245,249,246)" stroke-width="1" opacity="1" d="M 40.5 75 L 44 76.5 Q 44.8 78.8 42.5 78 L 42.5 76 L 38.5 77 L 38.5 76 L 40.5 75 Z " /><path fill="rgb(245,249,246)" stroke="rgb(245,249,246)" stroke-width="1" opacity="1" d="M 110.5 75 L 113 76.5 Q 113.9 79.9 108.5 78 L 107.5 76 L 111.5 77 L 111.5 76 L 110.5 75 Z " /><path fill="rgb(245,249,246)" stroke="rgb(245,249,246)" stroke-width="1" opacity="1" d="M 197.5 75 Q 200.5 76.5 197.5 78 L 196 77.5 L 197.5 75 Z " /><path fill="rgb(245,249,246)" stroke="rgb(245,249,246)" stroke-width="1" opacity="1" d="M 230.5 75 L 233 76 Q 234 79 231 78 L 230.5 75 Z " /><path fill="rgb(245,249,246)" stroke="rgb(245,249,246)" stroke-width="1" opacity="1" d="M 243 75 L 245 75.5 L 243 76.5 L 243 75 Z " /><path fill="rgb(245,249,246)" stroke="rgb(245,249,246)" stroke-width="1" opacity="1" d="M 71.5 76 Q 76.3 75.3 77 78.5 L 76.5 80 L 76 78 L 71.5 77 L 71.5 76 Z " /><path fill="rgb(245,249,246)" stroke="rgb(245,249,246)" stroke-width="1" opacity="1" d="M 132.5 76 L 136 77.5 L 133.5 78 L 132.5 76 Z " /><path fill="rgb(245,249,246)" stroke="rgb(245,249,246)" stroke-width="1" opacity="1" d="M 211.5 76 L 214 76.5 L 211.5 77 L 211.5 76 Z " /><path fill="rgb(245,249,246)" stroke="rgb(245,249,246)" stroke-width="1" opacity="1" d="M 248.5 76 L 247.5 78 L 244.5 79 L 244.5 78 L 248.5 76 Z " /><path fill="rgb(245,249,246)" stroke="rgb(245,249,246)" stroke-width="1" opacity="1" d="M 152.5 77 L 155 77.5 L 152.5 78 L 152.5 77 Z " /><path fill="rgb(245,249,246)" stroke="rgb(245,249,246)" stroke-width="1" opacity="1" d="M 239.5 77 L 241 79.5 L 240 79.5 L 239.5 77 Z " /><path fill="rgb(245,249,246)" stroke="rgb(245,249,246)" stroke-width="1" opacity="1" d="M 250.5 77 L 253 77.5 L 250.5 78 L 250.5 77 Z " /><path fill="rgb(245,249,246)" stroke="rgb(245,249,246)" stroke-width="1" opacity="1" d="M 258.5 77 L 261 78.5 L 257.5 80 L 257.5 79 L 259 78.5 L 258.5 77 Z " /><path fill="rgb(245,249,246)" stroke="rgb(245,249,246)" stroke-width="1" opacity="1" d="M 32.5 78 L 36 78.5 L 32.5 79 L 32.5 78 Z " /><path fill="rgb(245,249,246)" stroke="rgb(245,249,246)" stroke-width="1" opacity="1" d="M 143.5 78 L 146 78.5 L 143.5 79 L 143.5 78 Z " /><path fill="rgb(245,249,246)" stroke="rgb(245,249,246)" stroke-width="1" opacity="1" d="M 159.5 78 L 158.5 80 L 159.5 78 Z " /><path fill="rgb(245,249,246)" stroke="rgb(245,249,246)" stroke-width="1" opacity="1" d="M 172.5 78 L 176 79.5 L 174.5 80 L 172.5 78 Z " /><path fill="rgb(245,249,246)" stroke="rgb(245,249,246)" stroke-width="1" opacity="1" d="M 200.5 78 L 199.5 80 L 198 79.5 L 200.5 78 Z " /><path fill="rgb(245,249,246)" stroke="rgb(245,249,246)" stroke-width="1" opacity="1" d="M 220.5 78 L 225 78.5 L 220.5 79 L 220.5 78 Z " /><path fill="rgb(245,249,246)" stroke="rgb(245,249,246)" stroke-width="1" opacity="1" d="M 235.5 78 L 237 78.5 L 234.5 80 L 235.5 78 Z " /><path fill="rgb(245,249,246)" stroke="rgb(245,249,246)" stroke-width="1" opacity="1" d="M 283.5 78 Q 285.8 77.3 285 79.5 L 283.5 78 Z " /><path fill="rgb(245,249,246)" stroke="rgb(245,249,246)" stroke-width="1" opacity="1" d="M 137.5 79 L 142 79.5 L 137.5 80 L 137.5 79 Z " /><path fill="rgb(245,249,246)" stroke="rgb(245,249,246)" stroke-width="1" opacity="1" d="M 264.5 79 L 270 79.5 L 264.5 80 L 264.5 79 Z " /><path fill="rgb(245,249,246)" stroke="rgb(245,249,246)" stroke-width="1" opacity="1" d="M 275.5 79 L 279 79.5 L 275.5 80 L 275.5 79 Z " /><path fill="rgb(245,249,246)" stroke="rgb(245,249,246)" stroke-width="1" opacity="1" d="M 48.5 81 L 49.5 83 L 48.5 81 Z " /><path fill="rgb(245,249,246)" stroke="rgb(245,249,246)" stroke-width="1" opacity="1" d="M 70.5 85 L 71 86.5 L 69 87.5 L 70.5 85 Z " /><path fill="rgb(245,249,246)" stroke="rgb(245,249,246)" stroke-width="1" opacity="1" d="M 66.5 87 L 67 88.5 L 64 90.5 Q 62.9 87.2 65.5 88 L 66.5 87 Z " /><path fill="rgb(245,249,246)" stroke="rgb(245,249,246)" stroke-width="1" opacity="1" d="M 8.5 90 L 9 92.5 L 8 92.5 L 8.5 90 Z " /><path fill="rgb(245,249,246)" stroke="rgb(245,249,246)" stroke-width="1" opacity="1" d="M 29 91 L 31 91.5 L 29 92.5 L 29 91 Z " /><path fill="rgb(245,249,246)" stroke="rgb(245,249,246)" stroke-width="1" opacity="1" d="M 63.5 98 L 64 100.5 L 63 100.5 L 63.5 98 Z " /><path fill="rgb(245,249,246)" stroke="rgb(245,249,246)" stroke-width="1" opacity="1" d="M 59 99 Q 62 98 61 101 L 58.5 102 L 59 100.5 L 59 99 Z " /><path fill="rgb(245,249,246)" stroke="rgb(245,249,246)" stroke-width="1" opacity="1" d="M 53.5 107 L 54 109 L 56 109.5 L 54.5 110 L 52 108.5 L 53.5 107 Z " /><path fill="rgb(245,249,246)" stroke="rgb(245,249,246)" stroke-width="1" opacity="1" d="M 19.5 109 L 22 109.5 L 19.5 110 L 19.5 109 Z " /><path fill="rgb(245,249,246)" stroke="rgb(245,249,246)" stroke-width="1" opacity="1" d="M 47.5 110 L 46.5 112 L 45 111.5 L 47.5 110 Z " /><path fill="rgb(245,249,246)" stroke="rgb(245,249,246)" stroke-width="1" opacity="1" d="M 16.5 111 L 19 111.5 L 16.5 112 L 16.5 111 Z " /><path fill="rgb(252,224,204)" stroke="rgb(252,224,204)" stroke-width="1" opacity="1" d="M 181.5 54 Q 186.8 52.8 188 55.5 L 191.5 66 L 194.5 58 L 195 59.5 L 191.5 68 L 187 56 L 182.5 55 L 180.5 56 L 181.5 54 Z " /><path fill="rgb(252,224,204)" stroke="rgb(252,224,204)" stroke-width="1" opacity="1" d="M 196.5 54 L 204.5 55 L 209.5 54 L 210.5 56 L 205 55 L 204.5 59 L 204 56 Q 200.7 54.7 202 59.5 L 196.5 71 L 196 69.5 L 201 58.5 L 201 55 Q 196.8 54 195.5 57 L 195 55.5 L 196.5 54 Z " /><path fill="rgb(252,224,204)" stroke="rgb(252,224,204)" stroke-width="1" opacity="1" d="M 218.5 54 Q 226.8 53 230 56 L 228 62 L 226 61.5 L 229 57.5 Q 226.5 53.5 218.5 55 L 216.5 56 L 216.5 55 L 218.5 54 Z " /><path fill="rgb(252,224,204)" stroke="rgb(252,224,204)" stroke-width="1" opacity="1" d="M 234.5 54 L 237 54.5 L 234.5 55 L 234.5 54 Z " /><path fill="rgb(252,224,204)" stroke="rgb(252,224,204)" stroke-width="1" opacity="1" d="M 249.5 54 Q 260.6 52.4 263 59.5 L 264 63.5 L 263 63.5 Q 262.6 58 258.5 56 L 249.5 55 L 249.5 54 Z " /><path fill="rgb(252,224,204)" stroke="rgb(252,224,204)" stroke-width="1" opacity="1" d="M 267.5 54 L 272 54.5 L 267 55 L 266.5 76 L 266 55.5 L 267.5 54 Z " /><path fill="rgb(252,224,204)" stroke="rgb(252,224,204)" stroke-width="1" opacity="1" d="M 280.5 54 Q 285.8 52.8 287 55.5 L 285.5 55 Q 279.5 56.3 280.5 54 Z " /><path fill="rgb(252,224,204)" stroke="rgb(252,224,204)" stroke-width="1" opacity="1" d="M 73.5 55 L 76 55.5 L 73.5 56 L 73.5 55 Z " /><path fill="rgb(252,224,204)" stroke="rgb(252,224,204)" stroke-width="1" opacity="1" d="M 232.5 55 L 233 75 L 237.5 76 L 239 75.5 Q 237.8 78.3 236.5 76 L 233.5 77 L 232 74.5 L 232.5 55 Z " /><path fill="rgb(252,224,204)" stroke="rgb(252,224,204)" stroke-width="1" opacity="1" d="M 83.5 56 L 84 57.5 L 80 60.5 L 83.5 56 Z " /><path fill="rgb(252,224,204)" stroke="rgb(252,224,204)" stroke-width="1" opacity="1" d="M 214.5 56 L 215 57.5 L 213.5 61 L 213 58.5 L 214.5 56 Z " /><path fill="rgb(252,224,204)" stroke="rgb(252,224,204)" stroke-width="1" opacity="1" d="M 245.5 56 L 243.5 59 L 245.5 56 Z " /><path fill="rgb(252,224,204)" stroke="rgb(252,224,204)" stroke-width="1" opacity="1" d="M 273.5 56 L 274.5 58 L 273.5 56 Z " /><path fill="rgb(252,224,204)" stroke="rgb(252,224,204)" stroke-width="1" opacity="1" d="M 68.5 57 L 67.5 59 L 61.5 64 L 62 62.5 Q 61.3 60.3 63.5 61 L 68.5 57 Z " /><path fill="rgb(252,224,204)" stroke="rgb(252,224,204)" stroke-width="1" opacity="1" d="M 181.5 57 L 189.5 75 Q 194.9 76.9 194 73.5 L 196 72.5 Q 196.5 76.5 193.5 77 L 190.5 76 Q 188.8 78.7 187 74.5 L 186 69.5 L 181 59.5 L 181.5 57 Z " /><path fill="rgb(252,224,204)" stroke="rgb(252,224,204)" stroke-width="1" opacity="1" d="M 220.5 59 Q 224.3 58.3 225 60.5 L 223.5 60 L 220 60.5 L 224 62.5 L 221.5 63 L 219 62 L 220.5 59 Z " /><path fill="rgb(252,224,204)" stroke="rgb(252,224,204)" stroke-width="1" opacity="1" d="M 275.5 59 L 280 64.5 L 278 63.5 L 275.5 59 Z " /><path fill="rgb(252,224,204)" stroke="rgb(252,224,204)" stroke-width="1" opacity="1" d="M 242.5 60 L 242 61.5 L 241.5 69 L 241 61.5 L 242.5 60 Z " /><path fill="rgb(252,224,204)" stroke="rgb(252,224,204)" stroke-width="1" opacity="1" d="M 250.5 60 L 252 60.5 L 248.5 63 L 250.5 60 Z " /><path fill="rgb(252,224,204)" stroke="rgb(252,224,204)" stroke-width="1" opacity="1" d="M 254.5 60 L 257 61.5 L 258 67.5 Q 257.3 71.8 251.5 71 L 251.5 70 L 257 67.5 L 257 63.5 L 254.5 60 Z " /><path fill="rgb(252,224,204)" stroke="rgb(252,224,204)" stroke-width="1" opacity="1" d="M 79.5 62 L 78 64.5 L 76.5 67 L 77 65.5 L 79.5 62 Z " /><path fill="rgb(252,224,204)" stroke="rgb(252,224,204)" stroke-width="1" opacity="1" d="M 204.5 62 L 205 64 L 203 63.5 L 204.5 62 Z " /><path fill="rgb(252,224,204)" stroke="rgb(252,224,204)" stroke-width="1" opacity="1" d="M 213.5 63 L 215 66 L 217 66.5 L 215.5 67 Q 211.9 65.9 213.5 63 Z " /><path fill="rgb(252,224,204)" stroke="rgb(252,224,204)" stroke-width="1" opacity="1" d="M 227.5 64 L 230 65.5 L 231 71.5 L 230 74 L 224.5 76 L 224.5 75 Q 229.5 75.5 230 71.5 L 230 67.5 L 227.5 64 Z " /><path fill="rgb(252,224,204)" stroke="rgb(252,224,204)" stroke-width="1" opacity="1" d="M 60.5 65 L 59.5 67 L 60.5 65 Z " /><path fill="rgb(252,224,204)" stroke="rgb(252,224,204)" stroke-width="1" opacity="1" d="M 210.5 65 L 211 74.5 Q 209.2 78.7 207.5 76 L 205.5 77 Q 201.3 75.3 204 73.5 L 204.5 72 L 205 73.5 L 204.5 75 L 208.5 76 L 210 74.5 L 210.5 65 Z " /><path fill="rgb(252,224,204)" stroke="rgb(252,224,204)" stroke-width="1" opacity="1" d="M 272.5 65 L 274.5 68 L 272 67 L 272.5 65 Z " /><path fill="rgb(252,224,204)" stroke="rgb(252,224,204)" stroke-width="1" opacity="1" d="M 218.5 67 L 224 68.5 L 221.5 69 L 218.5 68 L 218.5 67 Z " /><path fill="rgb(252,224,204)" stroke="rgb(252,224,204)" stroke-width="1" opacity="1" d="M 75.5 68 L 74.5 70 L 75.5 68 Z " /><path fill="rgb(252,224,204)" stroke="rgb(252,224,204)" stroke-width="1" opacity="1" d="M 214 68 L 221 70.5 L 218.5 71 L 215.5 69 L 213 72.5 L 219 75.5 L 216.5 76 L 212 74 L 214 68 Z " /><path fill="rgb(252,224,204)" stroke="rgb(252,224,204)" stroke-width="1" opacity="1" d="M 248.5 68 L 249.5 70 L 248.5 68 Z " /><path fill="rgb(252,224,204)" stroke="rgb(252,224,204)" stroke-width="1" opacity="1" d="M 272.5 68 L 274 71.5 L 272.5 76 L 272.5 68 Z " /><path fill="rgb(252,224,204)" stroke="rgb(252,224,204)" stroke-width="1" opacity="1" d="M 275.5 69 L 280.5 75 L 282 75.5 L 280.5 76 L 275.5 69 Z " /><path fill="rgb(252,224,204)" stroke="rgb(252,224,204)" stroke-width="1" opacity="1" d="M 73.5 71 L 74 72.5 L 67.5 83 L 68 81.5 L 73.5 71 Z " /><path fill="rgb(252,224,204)" stroke="rgb(252,224,204)" stroke-width="1" opacity="1" d="M 243.5 72 L 247 74.5 L 245.5 75 L 243.5 72 Z " /><path fill="rgb(252,224,204)" stroke="rgb(252,224,204)" stroke-width="1" opacity="1" d="M 261.5 72 L 259.5 75 L 255.5 76 L 255.5 75 L 261.5 72 Z " /><path fill="rgb(252,224,204)" stroke="rgb(252,224,204)" stroke-width="1" opacity="1" d="M 53.5 77 L 53 78.5 L 52.5 80 L 52 78.5 L 53.5 77 Z " /><path fill="rgb(252,224,204)" stroke="rgb(252,224,204)" stroke-width="1" opacity="1" d="M 50.5 83 L 50 84.5 L 48.5 88 L 48 86.5 L 50.5 83 Z " /><path fill="rgb(252,224,204)" stroke="rgb(252,224,204)" stroke-width="1" opacity="1" d="M 46 89 L 48 89.5 L 43 93.5 L 46 89 Z " /><path fill="rgb(252,224,204)" stroke="rgb(252,224,204)" stroke-width="1" opacity="1" d="M 28.5 92 L 30.5 94 L 39.5 95 L 41.5 94 L 41.5 95 L 34.5 96 L 30.5 95 L 28.5 92 Z " /><path fill="rgb(252,224,204)" stroke="rgb(252,224,204)" stroke-width="1" opacity="1" d="M 62.5 92 L 63 93.5 Q 59.8 101.3 53.5 106 L 49.5 108 L 49.5 107 L 57 101.5 L 62.5 92 Z " /><path fill="rgb(252,224,204)" stroke="rgb(252,224,204)" stroke-width="1" opacity="1" d="M 11.5 97 L 18.5 105 L 23 107.5 L 21.5 108 L 13 100.5 L 11.5 97 Z " /><path fill="rgb(252,224,204)" stroke="rgb(252,224,204)" stroke-width="1" opacity="1" d="M 24.5 108 L 32 110.5 L 29.5 111 L 25.5 110 L 24.5 108 Z " /><path fill="rgb(252,224,204)" stroke="rgb(252,224,204)" stroke-width="1" opacity="1" d="M 47.5 108 L 46.5 110 L 45 109.5 L 47.5 108 Z " /><path fill="rgb(252,224,204)" stroke="rgb(252,224,204)" stroke-width="1" opacity="1" d="M 41.5 110 L 44 110.5 L 41.5 111 L 41.5 110 Z " /><path fill="rgb(235,101,34)" stroke="rgb(235,101,34)" stroke-width="1" opacity="1" d="M 182.5 55 L 187 56 L 191.5 68 L 195 57.5 L 197.5 55 Q 202.8 53.3 201 58.5 L 194 75 Q 189.4 76.3 188 73.5 L 181 56.5 L 182.5 55 Z " /><path fill="rgb(235,101,34)" stroke="rgb(235,101,34)" stroke-width="1" opacity="1" d="M 205 55 Q 208.8 54 210 56.5 L 210 74.5 L 208.5 76 L 204 74.5 L 205 72.5 Q 202.2 70.8 204 64.5 L 205 62.5 L 204 59.5 L 205 55 Z " /><path fill="rgb(235,101,34)" stroke="rgb(235,101,34)" stroke-width="1" opacity="1" d="M 218.5 55 Q 226.5 53.5 229 57.5 L 226.5 61 Q 225.1 58.4 220.5 59 L 219 62 L 226.5 64 L 230 67.5 Q 231 74 226.5 75 L 219.5 76 L 213 72.5 L 215.5 69 Q 218 72.2 224 71 Q 225.7 66.9 221.5 68 L 215 66 L 213 61.5 L 215 56 L 218.5 55 Z " /><path fill="rgb(235,101,34)" stroke="rgb(235,101,34)" stroke-width="1" opacity="1" d="M 233 55 Q 237.6 53.8 239 56.5 L 239 74.5 L 237.5 76 L 233 75 L 233 55 Z " /><path fill="rgb(235,101,34)" stroke="rgb(235,101,34)" stroke-width="1" opacity="1" d="M 248.5 55 Q 259.3 53.2 262 59.5 L 264 66.5 L 260.5 73 Q 257.7 76.7 250.5 76 L 243 72 Q 241 69 242 61.5 L 246.5 56 L 248.5 55 Z M 251 60 L 247 65 L 248 69 L 252 71 Q 257 72 258 68 L 257 62 Q 256 59 251 60 Z " /><path fill="rgb(235,101,34)" stroke="rgb(235,101,34)" stroke-width="1" opacity="1" d="M 267 55 Q 273.4 53.8 275 58.5 L 279.5 65 L 280 55 L 285.5 55 L 286 55.5 L 286 76 Q 281 76.8 279 73.5 L 272.5 65 L 272 76 L 267 75.5 L 267 55 Z " /><path fill="rgb(235,101,34)" stroke="rgb(235,101,34)" stroke-width="1" opacity="1" d="M 72.5 56 L 82.5 56 L 83 57.5 L 72 72.5 L 60 97.5 L 53.5 105 Q 46.8 111.8 32.5 111 L 21.5 107 L 16 102.5 L 12 96.5 L 14 96 L 20.5 88 Q 22.8 88.8 22 86.5 L 23 86.5 L 25 92 Q 29.5 96.2 39.5 96 L 48 89.5 L 59 67.5 L 66.5 59 L 72.5 56 Z " /><path fill="rgb(252,252,249)" stroke="rgb(252,252,249)" stroke-width="1" opacity="1" d="M 8.5 32 L 12 34.5 L 11.5 36 L 15 36.5 L 12.5 38 L 10 37 L 10 35 L 5 35 L 5 33.5 L 6.5 34 Q 9 34.7 8.5 32 Z " /><path fill="rgb(252,252,249)" stroke="rgb(252,252,249)" stroke-width="1" opacity="1" d="M 1.5 34 L 2.5 36 L 1.5 34 Z " /><path fill="rgb(252,252,249)" stroke="rgb(252,252,249)" stroke-width="1" opacity="1" d="M 2.5 38 L 4 38.5 L 1.5 40 L 2.5 38 Z " /><path fill="rgb(252,252,249)" stroke="rgb(252,252,249)" stroke-width="1" opacity="1" d="M 4.5 40 L 6 47.5 L 3.5 52 L 3 48.5 L 4.5 40 Z " /><path fill="rgb(252,252,249)" stroke="rgb(252,252,249)" stroke-width="1" opacity="1" d="M 20.5 40 L 23 41.5 Q 23.7 44.1 21 43 L 20.5 40 Z " /><path fill="rgb(252,252,249)" stroke="rgb(252,252,249)" stroke-width="1" opacity="1" d="M 19.5 43 L 20.5 45 L 19.5 43 Z " /><path fill="rgb(252,252,249)" stroke="rgb(252,252,249)" stroke-width="1" opacity="1" d="M 22.5 46 L 24 48.5 L 23.5 51 Q 20.6 51.4 22.5 46 Z " /><path fill="rgb(252,252,249)" stroke="rgb(252,252,249)" stroke-width="1" opacity="1" d="M 73.5 48 L 75 48.5 L 72.5 50 L 73.5 48 Z " /><path fill="rgb(252,252,249)" stroke="rgb(252,252,249)" stroke-width="1" opacity="1" d="M 100.5 48 L 103 48.5 L 100.5 49 L 100.5 48 Z " /><path fill="rgb(252,252,249)" stroke="rgb(252,252,249)" stroke-width="1" opacity="1" d="M 134.5 48 L 137 48.5 L 136.5 50 L 140 50.5 L 139.5 52 Q 141.8 51.3 141 53.5 L 138.5 52 L 134.5 48 Z " /><path fill="rgb(252,252,249)" stroke="rgb(252,252,249)" stroke-width="1" opacity="1" d="M 157.5 48 L 160 48.5 L 156.5 50 L 157.5 48 Z " /><path fill="rgb(252,252,249)" stroke="rgb(252,252,249)" stroke-width="1" opacity="1" d="M 166 48 L 171.5 50 L 173 49.5 Q 173.8 51.8 171.5 51 L 169.5 52 L 166 50 L 166 48 Z " /><path fill="rgb(252,252,249)" stroke="rgb(252,252,249)" stroke-width="1" opacity="1" d="M 179.5 48 L 183.5 50 L 186.5 49 L 187.5 51 L 184.5 52 L 180.5 50 L 178.5 51 L 178.5 50 L 180 49.5 L 179.5 48 Z " /><path fill="rgb(252,252,249)" stroke="rgb(252,252,249)" stroke-width="1" opacity="1" d="M 207.5 48 L 213 50 Q 211.9 52.7 214.5 52 L 215.5 54 L 207 49.5 L 207.5 48 Z " /><path fill="rgb(252,252,249)" stroke="rgb(252,252,249)" stroke-width="1" opacity="1" d="M 214.5 48 L 224.5 50 L 229.5 49 L 229.5 50 L 228 50.5 L 232 52 Q 230.5 48.3 233.5 49 L 235.5 49 L 239 49.5 L 233 50 L 234 52.5 L 232 53.5 L 234 54.5 L 230.5 56 L 229.5 53 Q 225.7 48.8 216.5 50 L 214.5 48 Z " /><path fill="rgb(252,252,249)" stroke="rgb(252,252,249)" stroke-width="1" opacity="1" d="M 274.5 48 L 276.5 49 L 278.5 48 L 277.5 50 Q 272.4 51.3 274.5 48 Z " /><path fill="rgb(252,252,249)" stroke="rgb(252,252,249)" stroke-width="1" opacity="1" d="M 1.5 49 L 2 51.5 L 1 51.5 L 1.5 49 Z " /><path fill="rgb(252,252,249)" stroke="rgb(252,252,249)" stroke-width="1" opacity="1" d="M 86.5 49 L 87.5 51 Q 84.7 51.7 86.5 49 Z " /><path fill="rgb(252,252,249)" stroke="rgb(252,252,249)" stroke-width="1" opacity="1" d="M 128.5 49 L 129 50.5 L 128.5 52 Q 133 51 134 53.5 L 132.5 53 L 120 51.5 L 128 51 L 128.5 49 Z " /><path fill="rgb(252,252,249)" stroke="rgb(252,252,249)" stroke-width="1" opacity="1" d="M 202 49 L 206 50.5 L 207 52.5 L 203.5 53 L 202 49 Z " /><path fill="rgb(252,252,249)" stroke="rgb(252,252,249)" stroke-width="1" opacity="1" d="M 264 49 Q 268.1 47.7 267 51 L 264.5 52 L 264 49 Z " /><path fill="rgb(252,252,249)" stroke="rgb(252,252,249)" stroke-width="1" opacity="1" d="M 280.5 49 L 281.5 51 Q 278.7 51.7 280.5 49 Z " /><path fill="rgb(252,252,249)" stroke="rgb(252,252,249)" stroke-width="1" opacity="1" d="M 80 50 Q 83 49 82 52 Q 79 53 80 50 Z " /><path fill="rgb(252,252,249)" stroke="rgb(252,252,249)" stroke-width="1" opacity="1" d="M 153.5 50 L 155 50.5 L 152.5 52 L 153.5 50 Z " /><path fill="rgb(252,252,249)" stroke="rgb(252,252,249)" stroke-width="1" opacity="1" d="M 195.5 50 L 200 50.5 L 196.5 52 L 195.5 50 Z " /><path fill="rgb(252,252,249)" stroke="rgb(252,252,249)" stroke-width="1" opacity="1" d="M 284.5 50 Q 287.5 49.1 286 53.5 L 287.5 56 Q 284 54 284.5 50 Z " /><path fill="rgb(252,252,249)" stroke="rgb(252,252,249)" stroke-width="1" opacity="1" d="M 99 51 L 112 52.5 L 104.5 53 L 102.5 52 L 99.5 54 L 99 51 Z " /><path fill="rgb(252,252,249)" stroke="rgb(252,252,249)" stroke-width="1" opacity="1" d="M 192.5 51 L 195 52.5 L 193.5 53 L 192.5 51 Z " /><path fill="rgb(252,252,249)" stroke="rgb(252,252,249)" stroke-width="1" opacity="1" d="M 249.5 51 L 252.5 52 L 254 51.5 Q 254.9 54.5 250.5 53 L 249.5 51 Z " /><path fill="rgb(252,252,249)" stroke="rgb(252,252,249)" stroke-width="1" opacity="1" d="M 115.5 52 L 118 53.5 L 114.5 54 L 115.5 52 Z " /><path fill="rgb(252,252,249)" stroke="rgb(252,252,249)" stroke-width="1" opacity="1" d="M 157.5 52 Q 162 51 163 53.5 L 156.5 54 L 157.5 52 Z " /><path fill="rgb(252,252,249)" stroke="rgb(252,252,249)" stroke-width="1" opacity="1" d="M 175.5 52 L 177.5 52 L 181 54.5 L 181 56.5 L 180.5 59 L 179 53 L 177 53.5 L 177.5 55 L 174 53.5 L 175.5 52 Z " /><path fill="rgb(252,252,249)" stroke="rgb(252,252,249)" stroke-width="1" opacity="1" d="M 218.5 52 L 224 52.5 L 220.5 54 L 218.5 52 Z " /><path fill="rgb(252,252,249)" stroke="rgb(252,252,249)" stroke-width="1" opacity="1" d="M 236.5 52 L 240 52.5 L 236.5 53 L 236.5 52 Z " /><path fill="rgb(252,252,249)" stroke="rgb(252,252,249)" stroke-width="1" opacity="1" d="M 247.5 52 L 249 54.5 Q 247.8 57 244 56 L 245.5 53 L 247.5 52 Z " /><path fill="rgb(252,252,249)" stroke="rgb(252,252,249)" stroke-width="1" opacity="1" d="M 262.5 52 L 261.5 54 L 262.5 52 Z " /><path fill="rgb(252,252,249)" stroke="rgb(252,252,249)" stroke-width="1" opacity="1" d="M 0.5 53 L 1 55.5 L 0 55.5 L 0.5 53 Z " /><path fill="rgb(252,252,249)" stroke="rgb(252,252,249)" stroke-width="1" opacity="1" d="M 77.5 53 L 80 54.5 L 72.5 56 L 73.5 54 L 77.5 53 Z " /><path fill="rgb(252,252,249)" stroke="rgb(252,252,249)" stroke-width="1" opacity="1" d="M 85.5 53 L 88 53.5 L 87.5 56 L 85.5 53 Z " /><path fill="rgb(252,252,249)" stroke="rgb(252,252,249)" stroke-width="1" opacity="1" d="M 189.5 53 Q 192.8 51.9 192 54.5 L 190.5 54 L 189.5 53 Z " /><path fill="rgb(252,252,249)" stroke="rgb(252,252,249)" stroke-width="1" opacity="1" d="M 267.5 53 L 266 55.5 L 265.5 64 L 264 55.5 L 267.5 53 Z " /><path fill="rgb(252,252,249)" stroke="rgb(252,252,249)" stroke-width="1" opacity="1" d="M 272.5 53 L 276 55.5 L 274 56 Q 275.1 53.3 272.5 54 L 272.5 53 Z " /><path fill="rgb(252,252,249)" stroke="rgb(252,252,249)" stroke-width="1" opacity="1" d="M 138.5 54 L 139 56 L 137 55.5 L 138.5 54 Z " /><path fill="rgb(252,252,249)" stroke="rgb(252,252,249)" stroke-width="1" opacity="1" d="M 164.5 54 L 168.5 55 L 170 54.5 L 170 56.5 L 169.5 59 L 169 56 Q 164.3 57 164.5 54 Z " /><path fill="rgb(252,252,249)" stroke="rgb(252,252,249)" stroke-width="1" opacity="1" d="M 257.5 54 L 260 54.5 L 257.5 55 L 257.5 54 Z " /><path fill="rgb(252,252,249)" stroke="rgb(252,252,249)" stroke-width="1" opacity="1" d="M 278.5 54 L 280 54.5 L 279 56.5 L 279.5 58 Q 275 56 278.5 54 Z " /><path fill="rgb(252,252,249)" stroke="rgb(252,252,249)" stroke-width="1" opacity="1" d="M 188 55 L 190 55.5 L 189 57.5 L 191.5 56 L 194 57.5 L 193 55.5 L 195 56.5 L 193.5 60 L 191.5 57 L 191 59 L 188 57.5 L 188 55 Z " /><path fill="rgb(252,252,249)" stroke="rgb(252,252,249)" stroke-width="1" opacity="1" d="M 2.5 56 L 3 63.5 L 2 63.5 L 2.5 56 Z " /><path fill="rgb(252,252,249)" stroke="rgb(252,252,249)" stroke-width="1" opacity="1" d="M 24.5 56 L 26 56.5 L 23.5 58 L 24.5 56 Z " /><path fill="rgb(252,252,249)" stroke="rgb(252,252,249)" stroke-width="1" opacity="1" d="M 34.5 56 L 40 56.5 L 34.5 57 L 34.5 56 Z " /><path fill="rgb(252,252,249)" stroke="rgb(252,252,249)" stroke-width="1" opacity="1" d="M 59.5 56 Q 62.8 54.9 62 57.5 L 59.5 59 L 59.5 58 L 61 57.5 L 59.5 56 Z " /><path fill="rgb(252,252,249)" stroke="rgb(252,252,249)" stroke-width="1" opacity="1" d="M 155.5 56 Q 158.1 55.2 157 58.5 L 156 58.5 L 155.5 56 Z " /><path fill="rgb(252,252,249)" stroke="rgb(252,252,249)" stroke-width="1" opacity="1" d="M 202.5 56 Q 205.5 55.5 204 62.5 L 203 62.5 L 202.5 56 Z " /><path fill="rgb(252,252,249)" stroke="rgb(252,252,249)" stroke-width="1" opacity="1" d="M 210.5 56 Q 214 57 213 62.5 L 212 62.5 L 210 59.5 L 211 57.5 L 210.5 56 Z " /><path fill="rgb(252,252,249)" stroke="rgb(252,252,249)" stroke-width="1" opacity="1" d="M 241.5 56 L 241 57.5 L 240.5 59 L 240 57.5 L 241.5 56 Z " /><path fill="rgb(252,252,249)" stroke="rgb(252,252,249)" stroke-width="1" opacity="1" d="M 260.5 56 Q 262.8 55.3 262 57.5 L 262.5 59 L 260.5 56 Z " /><path fill="rgb(252,252,249)" stroke="rgb(252,252,249)" stroke-width="1" opacity="1" d="M 29.5 58 L 31.5 59 L 33.5 59 L 35 59.5 L 33 60.5 L 32.5 59 L 28.5 60 L 29.5 58 Z " /><path fill="rgb(252,252,249)" stroke="rgb(252,252,249)" stroke-width="1" opacity="1" d="M 83.5 58 L 80.5 62 L 83.5 58 Z " /><path fill="rgb(252,252,249)" stroke="rgb(252,252,249)" stroke-width="1" opacity="1" d="M 242.5 59 L 241.5 61 L 242.5 59 Z " /><path fill="rgb(252,252,249)" stroke="rgb(252,252,249)" stroke-width="1" opacity="1" d="M 115.5 60 L 116 63.5 L 114.5 72 L 114 64.5 L 115.5 60 Z " /><path fill="rgb(252,252,249)" stroke="rgb(252,252,249)" stroke-width="1" opacity="1" d="M 167.5 60 L 170 60.5 Q 170.7 63.5 167 62 L 167.5 60 Z " /><path fill="rgb(252,252,249)" stroke="rgb(252,252,249)" stroke-width="1" opacity="1" d="M 190.5 60 L 191 63.5 L 190 63.5 L 190.5 60 Z " /><path fill="rgb(252,252,249)" stroke="rgb(252,252,249)" stroke-width="1" opacity="1" d="M 201.5 60 L 201 61.5 L 200.5 63 L 200 61.5 L 201.5 60 Z " /><path fill="rgb(252,252,249)" stroke="rgb(252,252,249)" stroke-width="1" opacity="1" d="M 252.5 60 L 256 62.5 L 253.5 61 L 252.5 60 Z " /><path fill="rgb(252,252,249)" stroke="rgb(252,252,249)" stroke-width="1" opacity="1" d="M 35.5 61 L 38 61.5 Q 38.8 63.8 36.5 63 L 35.5 61 Z " /><path fill="rgb(252,252,249)" stroke="rgb(252,252,249)" stroke-width="1" opacity="1" d="M 228.5 61 L 231 62.5 L 226.5 64 L 225.5 62 Q 227 64.5 228.5 61 Z " /><path fill="rgb(252,252,249)" stroke="rgb(252,252,249)" stroke-width="1" opacity="1" d="M 250.5 61 L 251.5 64 L 253 63.5 L 253.5 66 L 254.5 64 L 257 67.5 L 255.5 67 L 253.5 67 L 249 62.5 L 250.5 61 Z " /><path fill="rgb(252,252,249)" stroke="rgb(252,252,249)" stroke-width="1" opacity="1" d="M 60 62 L 62 62.5 L 58.5 68 L 56 64.5 L 58.5 66 L 60 64.5 L 60 62 Z " /><path fill="rgb(252,252,249)" stroke="rgb(252,252,249)" stroke-width="1" opacity="1" d="M 85.5 62 L 88 63.5 L 83.5 64 L 83.5 63 L 85.5 62 Z " /><path fill="rgb(252,252,249)" stroke="rgb(252,252,249)" stroke-width="1" opacity="1" d="M 110 62 Q 113.8 60.5 113 63.5 Q 110.3 65.3 112 71.5 L 110.5 73 L 110 62 Z " /><path fill="rgb(252,252,249)" stroke="rgb(252,252,249)" stroke-width="1" opacity="1" d="M 145.5 62 L 152 63 L 151.5 65 L 145.5 63 L 145.5 62 Z " /><path fill="rgb(252,252,249)" stroke="rgb(252,252,249)" stroke-width="1" opacity="1" d="M 179.5 62 L 182 63.5 L 182.5 62 L 183 63.5 L 182 64.5 L 182 72 Q 179 70.8 180 74.5 L 177.5 80 L 175 79 L 175.5 77 Q 176.8 79.3 178 76.5 L 180 71.5 L 180 64.5 L 179.5 62 Z " /><path fill="rgb(252,252,249)" stroke="rgb(252,252,249)" stroke-width="1" opacity="1" d="M 98.5 63 L 101 64.5 L 101 75.5 L 103 78.5 L 100 80 L 101 76.5 L 99 76.5 L 100 74.5 L 100 72.5 L 100 64.5 L 98.5 64 L 98.5 63 Z " /><path fill="rgb(252,252,249)" stroke="rgb(252,252,249)" stroke-width="1" opacity="1" d="M 39.5 64 L 41.5 67 Q 42.8 64.8 44 67.5 Q 44.8 69.8 42.5 69 L 39 65.5 L 39.5 64 Z " /><path fill="rgb(252,252,249)" stroke="rgb(252,252,249)" stroke-width="1" opacity="1" d="M 201.5 64 L 202 71.5 L 201 71.5 L 201.5 64 Z " /><path fill="rgb(252,252,249)" stroke="rgb(252,252,249)" stroke-width="1" opacity="1" d="M 212.5 64 L 215 67.5 L 214 67.5 Q 214.7 64.9 212 66 L 212.5 64 Z " /><path fill="rgb(252,252,249)" stroke="rgb(252,252,249)" stroke-width="1" opacity="1" d="M 229.5 64 L 231.5 67 Q 229.3 67.8 230 65.5 L 229.5 64 Z " /><path fill="rgb(252,252,249)" stroke="rgb(252,252,249)" stroke-width="1" opacity="1" d="M 286.5 64 L 287 71.5 L 286 71.5 L 286.5 64 Z " /><path fill="rgb(252,252,249)" stroke="rgb(252,252,249)" stroke-width="1" opacity="1" d="M 47.5 66 L 47 67.5 L 45 71.5 L 46.5 74 L 44 73 L 43 70.5 L 46 69.5 L 47.5 66 Z " /><path fill="rgb(252,252,249)" stroke="rgb(252,252,249)" stroke-width="1" opacity="1" d="M 77.5 66 Q 80.1 65.3 79 68 L 76 67.5 L 77.5 66 Z " /><path fill="rgb(252,252,249)" stroke="rgb(252,252,249)" stroke-width="1" opacity="1" d="M 153.5 66 L 155 68.5 L 153.5 69 Q 150.5 67.5 153.5 66 Z " /><path fill="rgb(252,252,249)" stroke="rgb(252,252,249)" stroke-width="1" opacity="1" d="M 198.5 66 Q 201.5 65.1 200 69.5 L 199 69.5 L 198.5 66 Z " /><path fill="rgb(252,252,249)" stroke="rgb(252,252,249)" stroke-width="1" opacity="1" d="M 147.5 67 L 150 67.5 L 145.5 69 L 145.5 68 L 147.5 67 Z " /><path fill="rgb(252,252,249)" stroke="rgb(252,252,249)" stroke-width="1" opacity="1" d="M 273.5 67 L 274.5 69 L 273.5 67 Z " /><path fill="rgb(252,252,249)" stroke="rgb(252,252,249)" stroke-width="1" opacity="1" d="M 212.5 68 L 213 70.5 L 212 70.5 L 212.5 68 Z " /><path fill="rgb(252,252,249)" stroke="rgb(252,252,249)" stroke-width="1" opacity="1" d="M 249.5 68 L 252 69.5 L 250.5 70 L 249.5 68 Z " /><path fill="rgb(252,252,249)" stroke="rgb(252,252,249)" stroke-width="1" opacity="1" d="M 165.5 69 L 167 72.5 L 166 74.5 L 166.5 76 L 164.5 77 L 165 75.5 L 165.5 69 Z " /><path fill="rgb(252,252,249)" stroke="rgb(252,252,249)" stroke-width="1" opacity="1" d="M 168.5 69 L 169.5 71 Q 166.7 71.7 168.5 69 Z " /><path fill="rgb(252,252,249)" stroke="rgb(252,252,249)" stroke-width="1" opacity="1" d="M 185.5 69 L 185 70.5 L 184.5 72 L 184 70.5 L 185.5 69 Z " /><path fill="rgb(252,252,249)" stroke="rgb(252,252,249)" stroke-width="1" opacity="1" d="M 240.5 69 L 241 72.5 L 240 74.5 L 243 76 L 244 78.5 L 240.5 78 L 238.5 80 L 235 79.5 L 240 77.5 L 239 73.5 L 240.5 69 Z " /><path fill="rgb(252,252,249)" stroke="rgb(252,252,249)" stroke-width="1" opacity="1" d="M 273.5 70 L 277 72.5 L 275.5 73 L 274 72.5 L 275 74.5 L 271.5 77 L 271.5 76 Q 274.5 76.9 273 72.5 L 273.5 70 Z " /><path fill="rgb(252,252,249)" stroke="rgb(252,252,249)" stroke-width="1" opacity="1" d="M 47.5 71 L 48.5 73 L 47.5 71 Z " /><path fill="rgb(252,252,249)" stroke="rgb(252,252,249)" stroke-width="1" opacity="1" d="M 242.5 71 L 245 74.5 L 242 72.5 L 242.5 71 Z " /><path fill="rgb(252,252,249)" stroke="rgb(252,252,249)" stroke-width="1" opacity="1" d="M 3.5 72 L 5 79.5 L 4 79.5 L 3.5 72 Z " /><path fill="rgb(252,252,249)" stroke="rgb(252,252,249)" stroke-width="1" opacity="1" d="M 52.5 72 L 55 73.5 L 54.5 75 L 51 74 L 52.5 77 L 54 76.5 Q 52.3 80.7 50.5 78 L 49 78 L 49 74 L 52.5 72 Z " /><path fill="rgb(252,252,249)" stroke="rgb(252,252,249)" stroke-width="1" opacity="1" d="M 211.5 72 L 212 74.5 L 209 76.5 L 211.5 72 Z " /><path fill="rgb(252,252,249)" stroke="rgb(252,252,249)" stroke-width="1" opacity="1" d="M 265.5 72 L 266 75.5 L 264 74.5 L 265.5 72 Z " /><path fill="rgb(252,252,249)" stroke="rgb(252,252,249)" stroke-width="1" opacity="1" d="M 73.5 73 L 73 74.5 L 72.5 76 L 72 74.5 L 73.5 73 Z " /><path fill="rgb(252,252,249)" stroke="rgb(252,252,249)" stroke-width="1" opacity="1" d="M 114.5 73 L 116 78.5 L 115 78.5 L 114.5 73 Z " /><path fill="rgb(252,252,249)" stroke="rgb(252,252,249)" stroke-width="1" opacity="1" d="M 168.5 73 L 169 75.5 L 168 75.5 L 168.5 73 Z " /><path fill="rgb(252,252,249)" stroke="rgb(252,252,249)" stroke-width="1" opacity="1" d="M 186.5 73 L 189 76.5 L 186 74.5 L 186.5 73 Z " /><path fill="rgb(252,252,249)" stroke="rgb(252,252,249)" stroke-width="1" opacity="1" d="M 286.5 73 L 287.5 75 L 286.5 73 Z " /><path fill="rgb(252,252,249)" stroke="rgb(252,252,249)" stroke-width="1" opacity="1" d="M 183.5 74 L 185 77 L 187 77.5 L 184 78 Q 185 81 182 80 L 183.5 74 Z " /><path fill="rgb(252,252,249)" stroke="rgb(252,252,249)" stroke-width="1" opacity="1" d="M 213.5 74 L 216 75.5 L 214.5 76 L 213.5 74 Z " /><path fill="rgb(252,252,249)" stroke="rgb(252,252,249)" stroke-width="1" opacity="1" d="M 228.5 74 L 228 75.5 Q 227.3 77.8 229.5 77 L 232.5 75 L 232.5 76 Q 230.3 75.3 231 77.5 L 232.5 80 L 227.5 77 L 218 76.5 L 226.5 76 L 228.5 74 Z " /><path fill="rgb(252,252,249)" stroke="rgb(252,252,249)" stroke-width="1" opacity="1" d="M 278.5 74 L 280 76.5 L 279 76.5 L 278.5 74 Z " /><path fill="rgb(252,252,249)" stroke="rgb(252,252,249)" stroke-width="1" opacity="1" d="M 6.5 75 L 7 78.5 L 6 78.5 L 6.5 75 Z " /><path fill="rgb(252,252,249)" stroke="rgb(252,252,249)" stroke-width="1" opacity="1" d="M 45.5 75 L 44.5 77 L 45.5 75 Z " /><path fill="rgb(252,252,249)" stroke="rgb(252,252,249)" stroke-width="1" opacity="1" d="M 200.5 75 L 201.5 78 Q 205.3 77 204 80 L 200.5 78 Q 199.3 80.3 198 77.5 L 200.5 75 Z " /><path fill="rgb(252,252,249)" stroke="rgb(252,252,249)" stroke-width="1" opacity="1" d="M 203.5 75 L 204.5 77 L 203.5 75 Z " /><path fill="rgb(252,252,249)" stroke="rgb(252,252,249)" stroke-width="1" opacity="1" d="M 258 75 Q 261 74 260 77 Q 257 78 258 75 Z " /><path fill="rgb(252,252,249)" stroke="rgb(252,252,249)" stroke-width="1" opacity="1" d="M 23.5 76 L 29 77.5 L 23 78 L 23.5 76 Z " /><path fill="rgb(252,252,249)" stroke="rgb(252,252,249)" stroke-width="1" opacity="1" d="M 33.5 76 L 36.5 77 L 38.5 77 L 42.5 76 L 43 78.5 L 41.5 80 L 38.5 78 L 36.5 79 L 32 77.5 L 33.5 76 Z " /><path fill="rgb(252,252,249)" stroke="rgb(252,252,249)" stroke-width="1" opacity="1" d="M 234.5 76 L 237 76.5 L 234.5 77 L 234.5 76 Z " /><path fill="rgb(252,252,249)" stroke="rgb(252,252,249)" stroke-width="1" opacity="1" d="M 249.5 76 L 256 76.5 L 249.5 77 L 249.5 76 Z " /><path fill="rgb(252,252,249)" stroke="rgb(252,252,249)" stroke-width="1" opacity="1" d="M 281.5 76 L 285 76.5 L 281.5 77 L 281.5 76 Z " /><path fill="rgb(252,252,249)" stroke="rgb(252,252,249)" stroke-width="1" opacity="1" d="M 47.5 77 L 46.5 79 L 47.5 77 Z " /><path fill="rgb(252,252,249)" stroke="rgb(252,252,249)" stroke-width="1" opacity="1" d="M 76.5 77 L 78 79.5 L 77 79.5 L 76.5 78 L 75 78.5 L 76.5 77 Z " /><path fill="rgb(252,252,249)" stroke="rgb(252,252,249)" stroke-width="1" opacity="1" d="M 104.5 77 L 105.5 79 Q 102.7 79.7 104.5 77 Z " /><path fill="rgb(252,252,249)" stroke="rgb(252,252,249)" stroke-width="1" opacity="1" d="M 141.5 77 L 142.5 79 Q 139.7 79.7 141.5 77 Z " /><path fill="rgb(252,252,249)" stroke="rgb(252,252,249)" stroke-width="1" opacity="1" d="M 162.5 77 L 163 79.5 L 161.5 79 L 160 78.5 L 162.5 77 Z " /><path fill="rgb(252,252,249)" stroke="rgb(252,252,249)" stroke-width="1" opacity="1" d="M 215.5 77 L 216 79 L 214 78.5 L 215.5 77 Z " /><path fill="rgb(252,252,249)" stroke="rgb(252,252,249)" stroke-width="1" opacity="1" d="M 0 78 Q 2.7 76.9 2 79.5 L 3.5 82 L 1 80.5 Q -0.3 86.6 2.5 86 L 1.5 88 L 0 87.5 L 0 78 Z " /><path fill="rgb(252,252,249)" stroke="rgb(252,252,249)" stroke-width="1" opacity="1" d="M 109.5 78 L 111 78.5 L 108.5 80 L 109.5 78 Z " /><path fill="rgb(252,252,249)" stroke="rgb(252,252,249)" stroke-width="1" opacity="1" d="M 118.5 78 Q 120.8 77.3 120 79.5 L 118.5 78 Z " /><path fill="rgb(252,252,249)" stroke="rgb(252,252,249)" stroke-width="1" opacity="1" d="M 130.5 78 L 133 78.5 Q 130.9 81.8 130.5 78 Z " /><path fill="rgb(252,252,249)" stroke="rgb(252,252,249)" stroke-width="1" opacity="1" d="M 211.5 78 L 212 80 L 209 79.5 L 211.5 78 Z " /><path fill="rgb(252,252,249)" stroke="rgb(252,252,249)" stroke-width="1" opacity="1" d="M 218 78 L 221 79.5 L 218 80 L 218 78 Z " /><path fill="rgb(252,252,249)" stroke="rgb(252,252,249)" stroke-width="1" opacity="1" d="M 265.5 78 L 270 78.5 L 265.5 79 L 265.5 78 Z " /><path fill="rgb(252,252,249)" stroke="rgb(252,252,249)" stroke-width="1" opacity="1" d="M 192.5 79 L 196 79.5 L 192.5 80 L 192.5 79 Z " /><path fill="rgb(252,252,249)" stroke="rgb(252,252,249)" stroke-width="1" opacity="1" d="M 224.5 79 L 227 79.5 L 224.5 80 L 224.5 79 Z " /><path fill="rgb(252,252,249)" stroke="rgb(252,252,249)" stroke-width="1" opacity="1" d="M 249.5 79 L 252 79.5 L 249.5 80 L 249.5 79 Z " /><path fill="rgb(252,252,249)" stroke="rgb(252,252,249)" stroke-width="1" opacity="1" d="M 51.5 80 L 51 81.5 L 49.5 84 L 50 82.5 L 51.5 80 Z " /><path fill="rgb(252,252,249)" stroke="rgb(252,252,249)" stroke-width="1" opacity="1" d="M 69.5 80 L 72 81.5 L 70.5 82 L 69.5 80 Z " /><path fill="rgb(252,252,249)" stroke="rgb(252,252,249)" stroke-width="1" opacity="1" d="M 68.5 82 L 67.5 84 L 68.5 82 Z " /><path fill="rgb(252,252,249)" stroke="rgb(252,252,249)" stroke-width="1" opacity="1" d="M 71.5 83 L 72 85.5 L 71 85.5 L 71.5 83 Z " /><path fill="rgb(252,252,249)" stroke="rgb(252,252,249)" stroke-width="1" opacity="1" d="M 5.5 84 L 7 88 Q 3.2 89.2 5.5 84 Z " /><path fill="rgb(252,252,249)" stroke="rgb(252,252,249)" stroke-width="1" opacity="1" d="M 32.5 88 L 37 88.5 L 32.5 89 L 32.5 88 Z " /><path fill="rgb(252,252,249)" stroke="rgb(252,252,249)" stroke-width="1" opacity="1" d="M 41 89 Q 44.8 87.5 44 90.5 L 46 90.5 L 43 92.5 L 42.5 90 L 41 90.5 L 41 89 Z " /><path fill="rgb(252,252,249)" stroke="rgb(252,252,249)" stroke-width="1" opacity="1" d="M 66.5 89 L 67 91 L 65 90.5 L 66.5 89 Z " /><path fill="rgb(252,252,249)" stroke="rgb(252,252,249)" stroke-width="1" opacity="1" d="M 29.5 90 L 33 91.5 L 31.5 92 L 29.5 90 Z " /><path fill="rgb(252,252,249)" stroke="rgb(252,252,249)" stroke-width="1" opacity="1" d="M 36 90 L 40 90 Q 38.5 93.8 41.5 93 L 41.5 94 L 38.5 95 L 38.5 94 L 40 93.5 L 36 92 L 36 90 Z " /><path fill="rgb(252,252,249)" stroke="rgb(252,252,249)" stroke-width="1" opacity="1" d="M 69.5 91 Q 73.3 90 72 93 L 69 94.5 Q 69.7 97.5 66 96 L 69.5 91 Z " /><path fill="rgb(252,252,249)" stroke="rgb(252,252,249)" stroke-width="1" opacity="1" d="M 62.5 95 L 63.5 97 L 62.5 95 Z " /><path fill="rgb(252,252,249)" stroke="rgb(252,252,249)" stroke-width="1" opacity="1" d="M 9.5 99 L 11 101.5 L 9 100.5 L 9.5 99 Z " /><path fill="rgb(252,252,249)" stroke="rgb(252,252,249)" stroke-width="1" opacity="1" d="M 13.5 101 Q 16.5 102.5 13.5 104 L 11 103.5 L 13.5 101 Z " /><path fill="rgb(252,252,249)" stroke="rgb(252,252,249)" stroke-width="1" opacity="1" d="M 52.5 106 L 52 107.5 Q 51.3 109.8 53.5 109 L 55 108.5 L 54 110.5 L 54.5 112 L 51 111 Q 52.3 108 48.5 109 L 46 110.5 L 52.5 106 Z " /><path fill="rgb(252,252,249)" stroke="rgb(252,252,249)" stroke-width="1" opacity="1" d="M 20.5 107 L 25 109.5 L 23.5 109 Q 19.7 109.5 20.5 107 Z " /><path fill="rgb(252,252,249)" stroke="rgb(252,252,249)" stroke-width="1" opacity="1" d="M 18.5 109 L 19.5 111 L 18.5 109 Z " /><path fill="rgb(252,252,249)" stroke="rgb(252,252,249)" stroke-width="1" opacity="1" d="M 26.5 110 L 29 110.5 L 26.5 111 L 26.5 110 Z " /><path fill="rgb(252,252,249)" stroke="rgb(252,252,249)" stroke-width="1" opacity="1" d="M 34.5 111 L 40 111.5 L 34.5 112 L 34.5 111 Z " /></svg>