<svg width="20" height="20" viewBox="0 0 20 20" fill="none" xmlns="http://www.w3.org/2000/svg">
<path fill-rule="evenodd" clip-rule="evenodd" d="M10.5049 2C6.36546 2 3.00976 5.35569 3.00976 9.49515C3.00976 10.6933 3.29015 11.823 3.78797 12.8251C3.90559 13.0618 3.92469 13.3355 3.84109 13.5862L2.57224 17.3927L6.41713 16.1529C6.66574 16.0727 6.93584 16.093 7.16968 16.2094C8.17301 16.7089 9.30467 16.9903 10.5049 16.9903C14.6444 16.9903 18.0001 13.6346 18.0001 9.49515C18.0001 5.35569 14.6444 2 10.5049 2ZM1.00976 9.49515C1.00976 4.25113 5.26089 0 10.5049 0C15.7489 0 20.0001 4.25113 20.0001 9.49515C20.0001 14.7392 15.7489 18.9903 10.5049 18.9903C9.13637 18.9903 7.83324 18.7002 6.65564 18.1774L1.30566 19.9025C0.946853 20.0182 0.553467 19.9223 0.288199 19.6544C0.0229314 19.3865 -0.0691278 18.9922 0.0500944 18.6345L1.81744 13.3326C1.29796 12.1581 1.00976 10.8591 1.00976 9.49515Z" fill="#ffffff"/>
</svg>
