<svg width="25" height="24" viewBox="0 0 25 24" fill="none" xmlns="http://www.w3.org/2000/svg">
<path fill-rule="evenodd" clip-rule="evenodd" d="M13.5 18H20.5C22.1569 18 23.5 16.6569 23.5 15V5C23.5 3.34315 22.1569 2 20.5 2H4.5C2.84315 2 1.5 3.34315 1.5 5V15C1.5 16.6569 2.84315 18 4.5 18H11.5V20H8.5C7.94772 20 7.5 20.4477 7.5 21C7.5 21.5523 7.94772 22 8.5 22H16.5C17.0523 22 17.5 21.5523 17.5 21C17.5 20.4477 17.0523 20 16.5 20H13.5V18ZM4.5 4C3.94772 4 3.5 4.44772 3.5 5V15C3.5 15.5523 3.94772 16 4.5 16H20.5C21.0523 16 21.5 15.5523 21.5 15V5C21.5 4.44772 21.0523 4 20.5 4H4.5Z" fill="white"/>
</svg>
